<svg width="35" height="34" viewBox="0 0 35 34" fill="none" xmlns="http://www.w3.org/2000/svg">
<rect x="1.5" y="1.5" width="32" height="31" rx="2.5" stroke="black" stroke-width="3"/>
<path d="M19.4 21.5C19.4 21.6326 19.45 21.7598 19.5391 21.8536C19.6282 21.9473 19.749 22 19.875 22H20.35C20.8539 22 21.3372 22.2107 21.6935 22.5858C22.0498 22.9609 22.25 23.4696 22.25 24C22.25 24.5304 22.0498 25.0391 21.6935 25.4142C21.3372 25.7893 20.8539 26 20.35 26H14.65C14.1461 26 13.6628 25.7893 13.3065 25.4142C12.9502 25.0391 12.75 24.5304 12.75 24C12.75 23.4696 12.9502 22.9609 13.3065 22.5858C13.6628 22.2107 14.1461 22 14.65 22H15.125C15.251 22 15.3718 21.9473 15.4609 21.8536C15.55 21.7598 15.6 21.6326 15.6 21.5V12.5C15.6 12.3674 15.55 12.2402 15.4609 12.1464C15.3718 12.0527 15.251 12 15.125 12H12.275C12.149 12 12.0282 12.0527 11.9391 12.1464C11.85 12.2402 11.8 12.3674 11.8 12.5V13C11.8 13.5304 11.5998 14.0391 11.2435 14.4142C10.8872 14.7893 10.4039 15 9.9 15C9.39609 15 8.91282 14.7893 8.5565 14.4142C8.20018 14.0391 8 13.5304 8 13V10C8 9.46957 8.20018 8.96086 8.5565 8.58579C8.91282 8.21071 9.39609 8 9.9 8H25.1C25.6039 8 26.0872 8.21071 26.4435 8.58579C26.7998 8.96086 27 9.46957 27 10V13C27 13.5304 26.7998 14.0391 26.4435 14.4142C26.0872 14.7893 25.6039 15 25.1 15C24.5961 15 24.1128 14.7893 23.7565 14.4142C23.4002 14.0391 23.2 13.5304 23.2 13V12.5C23.2 12.3674 23.15 12.2402 23.0609 12.1464C22.9718 12.0527 22.851 12 22.725 12H19.875C19.749 12 19.6282 12.0527 19.5391 12.1464C19.45 12.2402 19.4 12.3674 19.4 12.5V21.5Z" stroke="black" stroke-width="2" stroke-linecap="round" stroke-linejoin="round"/>
</svg>
