<svg width="24" height="24" viewBox="0 0 24 24" fill="none" xmlns="http://www.w3.org/2000/svg">
<path d="M21 21H8C7.7363 21.0006 7.47508 20.9491 7.23138 20.8483C6.98768 20.7476 6.76631 20.5996 6.58 20.413L2.586 16.414C2.21106 16.039 2.00043 15.5303 2.00043 15C2.00043 14.4697 2.21106 13.9611 2.586 13.586L12.586 3.58601C12.7717 3.40021 12.9922 3.25282 13.2349 3.15226C13.4777 3.0517 13.7378 2.99994 14.0005 2.99994C14.2632 2.99994 14.5234 3.0517 14.7661 3.15226C15.0088 3.25282 15.2293 3.40021 15.415 3.58601L21.414 9.58601C21.7889 9.96107 21.9996 10.4697 21.9996 11C21.9996 11.5303 21.7889 12.039 21.414 12.414L12.834 21M5.082 11.09L13.91 19.918" stroke="black" stroke-width="2" stroke-linecap="round" stroke-linejoin="round"/>
</svg>
