<svg width="19" height="22" viewBox="0 0 19 22" fill="none" xmlns="http://www.w3.org/2000/svg">
<path d="M8.4787 4.5C8.4787 4.10218 8.32066 3.72064 8.03936 3.43934C7.75805 3.15804 7.37652 3 6.9787 3C6.58087 3 6.19934 3.15804 5.91804 3.43934C5.63673 3.72064 5.4787 4.10218 5.4787 4.5V12L4.0087 10.53C3.71424 10.2359 3.32995 10.0486 2.91686 9.99785C2.50377 9.94712 2.08558 10.0359 1.7287 10.25C1.39365 10.4509 1.15018 10.7745 1.05008 11.1522C0.949982 11.5298 1.00115 11.9315 1.1927 12.272C3.0717 15.612 4.1667 17.521 4.4787 18C4.54378 18.1002 4.60911 18.2002 4.6747 18.3C5.22121 19.1299 5.96528 19.811 6.84008 20.2823C7.71489 20.7535 8.69304 21.0002 9.6867 21H9.4787H11.4787C13.07 21 14.5961 20.3679 15.7213 19.2426C16.8466 18.1174 17.4787 16.5913 17.4787 15V6.5C17.4787 6.10218 17.3207 5.72064 17.0394 5.43934C16.7581 5.15804 16.3765 5 15.9787 5C15.5809 5 15.1993 5.15804 14.918 5.43934C14.6367 5.72064 14.4787 6.10218 14.4787 6.5M8.4787 4.5V11M8.4787 4.5V2.5C8.4787 2.30302 8.5175 2.10796 8.59288 1.92597C8.66826 1.74399 8.77875 1.57863 8.91804 1.43934C9.05733 1.30005 9.22269 1.18956 9.40467 1.11418C9.58666 1.0388 9.78172 1 9.9787 1C10.1757 1 10.3707 1.0388 10.5527 1.11418C10.7347 1.18956 10.9001 1.30005 11.0394 1.43934C11.1786 1.57863 11.2891 1.74399 11.3645 1.92597C11.4399 2.10796 11.4787 2.30302 11.4787 2.5V11M11.4787 4.5C11.4787 4.10218 11.6367 3.72064 11.918 3.43934C12.1993 3.15804 12.5809 3 12.9787 3C13.3765 3 13.7581 3.15804 14.0394 3.43934C14.3207 3.72064 14.4787 4.10218 14.4787 4.5V11" stroke="black" stroke-width="2" stroke-linecap="round" stroke-linejoin="round"/>
</svg>
