<svg width="25" height="25" viewBox="0 0 25 25" fill="none" xmlns="http://www.w3.org/2000/svg">
<path d="M4.20523 4.88332C4.16411 4.78844 4.15248 4.68339 4.17183 4.58182C4.19118 4.48024 4.24063 4.38683 4.31374 4.31371C4.38686 4.2406 4.48027 4.19115 4.58185 4.1718C4.68342 4.15245 4.78847 4.16408 4.88335 4.2052L21.55 10.976C21.6514 11.0173 21.7371 11.0895 21.7951 11.1823C21.8531 11.275 21.8805 11.3838 21.8732 11.4929C21.8659 11.6021 21.8245 11.7063 21.7547 11.7905C21.6849 11.8748 21.5903 11.935 21.4844 11.9625L15.1052 13.6083C14.7448 13.701 14.4158 13.8885 14.1523 14.1514C13.8889 14.4142 13.7007 14.7429 13.6073 15.1031L11.9625 21.4844C11.935 21.5903 11.8749 21.6848 11.7906 21.7546C11.7063 21.8244 11.6022 21.8659 11.493 21.8732C11.3838 21.8804 11.2751 21.8531 11.1823 21.7951C11.0895 21.7371 11.0173 21.6513 10.9761 21.55L4.20523 4.88332Z" stroke="black" stroke-width="2" stroke-linecap="round" stroke-linejoin="round"/>
</svg>
