<svg width="18" height="17" viewBox="0 0 18 17" fill="none" xmlns="http://www.w3.org/2000/svg">
<path d="M13.5 14.5C14.0304 14.5 14.5391 14.7107 14.9142 15.0858C15.2893 15.4609 15.5 15.9696 15.5 16.5C15.5 15.9696 15.7107 15.4609 16.0858 15.0858C16.4609 14.7107 16.9696 14.5 17.5 14.5C16.9696 14.5 16.4609 14.2893 16.0858 13.9142C15.7107 13.5391 15.5 13.0304 15.5 12.5C15.5 13.0304 15.2893 13.5391 14.9142 13.9142C14.5391 14.2893 14.0304 14.5 13.5 14.5ZM13.5 2.5C14.0304 2.5 14.5391 2.71071 14.9142 3.08579C15.2893 3.46086 15.5 3.96957 15.5 4.5C15.5 3.96957 15.7107 3.46086 16.0858 3.08579C16.4609 2.71071 16.9696 2.5 17.5 2.5C16.9696 2.5 16.4609 2.28929 16.0858 1.91421C15.7107 1.53914 15.5 1.03043 15.5 0.5C15.5 1.03043 15.2893 1.53914 14.9142 1.91421C14.5391 2.28929 14.0304 2.5 13.5 2.5ZM6.5 14.5C6.5 12.9087 7.13214 11.3826 8.25736 10.2574C9.38258 9.13214 10.9087 8.5 12.5 8.5C10.9087 8.5 9.38258 7.86786 8.25736 6.74264C7.13214 5.61742 6.5 4.0913 6.5 2.5C6.5 4.0913 5.86786 5.61742 4.74264 6.74264C3.61742 7.86786 2.0913 8.5 0.5 8.5C2.0913 8.5 3.61742 9.13214 4.74264 10.2574C5.86786 11.3826 6.5 12.9087 6.5 14.5Z" stroke="black" stroke-linecap="round" stroke-linejoin="round"/>
<path d="M6.5139 9.71966C6.54433 9.71966 6.57475 9.71966 6.59804 9.75008C6.76877 9.97322 6.62178 10.3642 6.57936 10.5641C6.56943 10.6109 6.55263 10.6486 6.54479 10.5997C6.51534 10.4161 6.52934 10.2196 6.51782 10.1237C6.49589 9.94128 6.66004 10.8113 6.65993 10.8528C6.6599 10.861 6.62961 10.804 6.62547 10.7957C6.62132 10.7874 6.63653 10.8178 6.64437 10.8715C6.65221 10.9252 6.65221 11.0013 6.65221 11.0797" stroke="black" stroke-width="2" stroke-linecap="round"/>
<path d="M8.28881 8.93594C8.28881 9.1185 8.24317 9.31143 8.17021 9.44225C8.27198 9.27524 8.64149 8.9825 8.76481 8.84811C8.78809 8.8133 8.8033 8.78288 8.86508 8.72848" stroke="black" stroke-width="2" stroke-linecap="round"/>
<path d="M6.19119 8.84373C6.22162 8.84373 6.31336 8.85133 6.48186 8.85906C6.68079 8.85156 6.82094 8.83612 6.89747 8.82079C6.94357 8.81307 7.00443 8.80546 7.09018 8.77457" stroke="black" stroke-width="2" stroke-linecap="round"/>
<path d="M8.26576 9.3278C8.29619 9.3278 8.33468 9.30498 8.38067 9.25138C8.40384 9.22061 8.42666 9.18258 8.44982 9.15157C8.47299 9.12057 8.49581 9.09775 8.58847 9.02814" stroke="black" stroke-width="2" stroke-linecap="round"/>
<path d="M8.63458 8.95899C8.68022 8.95138 8.72586 8.94377 8.76459 8.93225C8.80331 8.92072 8.83374 8.90551 8.86463 8.89387C8.89552 8.88223 8.92595 8.87462 8.95729 8.86678" stroke="black" stroke-width="2" stroke-linecap="round"/>
<path d="M9.16475 8.70543C9.18757 8.66739 9.21039 8.62936 9.25257 8.60977C9.29476 8.59017 9.35561 8.59017 9.41831 8.59017" stroke="black" stroke-width="2" stroke-linecap="round"/>
<path d="M8.15051 8.03695C8.10487 8.00652 8.04333 7.96042 7.89442 7.85347C7.78354 7.77694 7.60098 7.65523 7.49552 7.58112C7.39007 7.50701 7.36725 7.48419 7.34373 7.46068" stroke="black" stroke-width="2" stroke-linecap="round"/>
<path d="M7.09017 7.27627C6.97607 7.16978 6.86196 7.06328 6.79177 6.98941C6.72158 6.91553 6.69876 6.87749 6.6756 6.84269C6.65243 6.80788 6.62961 6.77745 6.56 6.72305" stroke="black" stroke-width="2" stroke-linecap="round"/>
<path d="M6.60611 6.33119C6.60611 6.31597 6.5909 6.25489 6.56784 6.159C6.56001 6.08593 6.5524 6.02415 6.52947 5.95142C6.51414 5.90913 6.49132 5.85588 6.4678 5.80102" stroke="black" stroke-width="2" stroke-linecap="round"/>
<path d="M6.00678 7.09187C5.93071 7.16793 5.85464 7.244 5.71657 7.35165C5.57849 7.4593 5.38071 7.59622 5.13084 7.76034" stroke="black" stroke-width="2" stroke-linecap="round"/>
<path d="M5.36136 7.50678C5.10273 7.68935 4.89343 7.82143 4.74014 7.89046C4.58685 7.94429 4.45523 7.97541 4.35173 7.99074C4.30148 7.99846 4.25584 8.00606 4.20882 8.0139" stroke="black" stroke-width="2" stroke-linecap="round"/>
<path d="M3.33289 8.47491C3.33289 8.48252 3.33289 8.49013 3.34049 8.50926C3.3481 8.52839 3.36331 8.55882 3.40204 8.59017" stroke="black" stroke-width="2" stroke-linecap="round"/>
<path d="M4.34712 8.86678C4.40821 8.87439 4.57671 8.90505 4.96754 9.0543C5.54531 9.22015 5.676 9.2432 5.77166 9.26614C5.82929 9.28147 5.90536 9.30429 5.98373 9.3278" stroke="black" stroke-width="2" stroke-linecap="round"/>
<path d="M5.49966 9.3739C5.48445 9.41194 5.46923 9.44997 5.4614 9.5152C5.45356 9.58044 5.45356 9.67172 5.49966 9.78882" stroke="black" stroke-width="2" stroke-linecap="round"/>
<path d="M15.9252 2.53808L15.8574 2.50417" stroke="black" stroke-width="2" stroke-linecap="round"/>
<path d="M15.213 14.4072C15.2018 14.4072 15.1906 14.4072 15.2073 14.396C15.2239 14.3848 15.2686 14.3625 15.3148 14.3394" stroke="black" stroke-width="2" stroke-linecap="round"/>
</svg>
