<svg width="21" height="25" viewBox="0 0 21 25" fill="none" xmlns="http://www.w3.org/2000/svg">
<g clip-path="url(#clip0_22_189)">
<rect width="21" height="25" rx="6" fill="#676FFF"/>
<path d="M14.1109 20L13.3332 17M16.4441 14C16.6504 14 16.8482 13.921 16.9941 13.7803C17.1399 13.6397 17.2219 13.4489 17.2219 13.25V12.5C17.2219 12.1022 17.058 11.7206 16.7663 11.4393C16.4746 11.158 16.0789 11 15.6664 11H13.3332C13.1269 11 12.9291 10.921 12.7833 10.7803C12.6374 10.6397 12.5555 10.4489 12.5555 10.25V6.5C12.5555 6.10218 12.3916 5.72064 12.0999 5.43934C11.8082 5.15804 11.4125 5 11 5C10.5875 5 10.1918 5.15804 9.90012 5.43934C9.60841 5.72064 9.44454 6.10218 9.44454 6.5V10.25C9.44454 10.4489 9.3626 10.6397 9.21674 10.7803C9.07089 10.921 8.87307 11 8.6668 11H6.3336C5.92107 11 5.52543 11.158 5.23372 11.4393C4.94202 11.7206 4.77814 12.1022 4.77814 12.5V13.25C4.77814 13.4489 4.86008 13.6397 5.00593 13.7803C5.15179 13.921 5.3496 14 5.55587 14M16.4441 14H5.55587M16.4441 14L17.9786 19.0753C18.006 19.1855 18.0071 19.3003 17.9819 19.4111C17.9566 19.5218 17.9056 19.6256 17.8328 19.7146C17.76 19.8036 17.6671 19.8755 17.5613 19.925C17.4555 19.9744 17.3394 20.0001 17.2219 20H4.77814C4.66056 20.0001 4.5445 19.9744 4.43868 19.925C4.33286 19.8755 4.24004 19.8036 4.1672 19.7146C4.09436 19.6256 4.0434 19.5218 4.01815 19.4111C3.9929 19.3003 3.99401 19.1855 4.02141 19.0753L5.55587 14M7.88907 20L8.6668 17" stroke="white" stroke-linecap="round" stroke-linejoin="round"/>
</g>
<defs>
<clipPath id="clip0_22_189">
<rect width="21" height="25" rx="6" fill="white"/>
</clipPath>
</defs>
</svg>
