<svg width="20" height="25" viewBox="0 0 20 25" fill="none" xmlns="http://www.w3.org/2000/svg">
<g clip-path="url(#clip0_44_2)">
<rect width="20" height="25" rx="6" fill="#676FFF"/>
<g clip-path="url(#clip1_44_2)">
<path d="M5.88611 14.1845H8.62244C8.64666 14.1848 8.67108 14.1905 8.69373 14.2002L8.69763 14.2011C8.74299 14.22 8.77935 14.2564 8.79822 14.3017L8.79919 14.3056L8.81482 14.3769V17.1132C8.81476 17.1622 8.79479 17.2094 8.76013 17.2441C8.72548 17.2787 8.67831 17.2987 8.62927 17.2988C8.58006 17.2988 8.53231 17.279 8.49744 17.2441C8.46275 17.2093 8.44281 17.1622 8.44275 17.1132V14.8144L7.58923 15.6699L3.96228 19.3037L3.9613 19.3046C3.94402 19.322 3.92333 19.3353 3.90076 19.3447V19.3457C3.87834 19.355 3.85396 19.3593 3.82947 19.3593C3.80503 19.3593 3.7808 19.3541 3.75818 19.3447H3.7572L3.69763 19.3046L3.6947 19.3017L3.65466 19.2412C3.64522 19.2185 3.64002 19.1944 3.64001 19.1699L3.65466 19.0986C3.66413 19.076 3.67742 19.0552 3.6947 19.038L3.69568 19.0371L7.32947 15.4101L8.18494 14.5566H5.88611C5.83698 14.5565 5.78993 14.5366 5.75525 14.5019C5.7206 14.4673 5.70068 14.4202 5.70056 14.3711C5.70056 14.3218 5.72058 14.2739 5.75525 14.2392C5.79 14.2045 5.83712 14.1846 5.88611 14.1845ZM14.1136 14.1845C14.1625 14.1845 14.2096 14.2045 14.2445 14.2392C14.2792 14.2739 14.2992 14.3218 14.2992 14.3711C14.2991 14.4202 14.2792 14.4673 14.2445 14.5019C14.2098 14.5365 14.1628 14.5566 14.1136 14.5566H11.8148L12.6703 15.4101L16.3041 19.0371L16.3051 19.038L16.3461 19.0986C16.3554 19.1211 16.3597 19.1455 16.3597 19.1699L16.3461 19.2412C16.3366 19.2639 16.3224 19.2845 16.3051 19.3017L16.3021 19.3046C16.2849 19.3219 16.2642 19.3352 16.2416 19.3447C16.2189 19.3541 16.1948 19.3593 16.1703 19.3593C16.1458 19.3593 16.1216 19.3541 16.099 19.3447H16.098C16.0758 19.3352 16.0554 19.3217 16.0385 19.3046L16.0375 19.3037L12.4105 15.6699L11.557 14.8144V17.1132C11.557 17.1624 11.537 17.2095 11.5023 17.2441C11.4675 17.2788 11.4205 17.2987 11.3715 17.2988C11.3222 17.2988 11.2744 17.2789 11.2396 17.2441C11.205 17.2093 11.186 17.1622 11.1859 17.1132V14.3769C11.1862 14.3527 11.191 14.3281 11.2006 14.3056L11.2025 14.3017C11.2213 14.2566 11.2569 14.22 11.3021 14.2011L11.306 14.2002C11.3287 14.1905 11.3531 14.1848 11.3773 14.1845H14.1136ZM16.1703 6.64058C16.2203 6.64058 16.2688 6.65996 16.3041 6.69527C16.3395 6.73067 16.3588 6.7791 16.3588 6.82906C16.3587 6.8789 16.3391 6.92666 16.3041 6.96187L12.6703 10.5888L11.8148 11.4423H14.1136C14.1627 11.4423 14.2097 11.4623 14.2445 11.497C14.2792 11.5317 14.2991 11.5787 14.2992 11.6279C14.2992 11.6771 14.2793 11.7249 14.2445 11.7597C14.2097 11.7943 14.1626 11.8134 14.1136 11.8134H11.3773C11.3532 11.8131 11.3294 11.8083 11.307 11.7988L11.3021 11.7968C11.257 11.778 11.2213 11.7422 11.2025 11.6972L11.2006 11.6923L11.1859 11.622V8.8857C11.1859 8.83673 11.205 8.78962 11.2396 8.75484C11.2743 8.72019 11.3222 8.70015 11.3715 8.70015C11.4206 8.70022 11.4676 8.72014 11.5023 8.75484C11.5371 8.78964 11.557 8.83661 11.557 8.8857V11.1845L12.4105 10.3291L16.0375 6.69527C16.0727 6.66025 16.1205 6.64063 16.1703 6.64058ZM3.82947 6.64058L3.90173 6.65523L3.96326 6.69625L7.58923 10.3291L8.44275 11.1845V8.8857C8.44278 8.83668 8.46276 8.78963 8.49744 8.75484C8.53221 8.72007 8.57996 8.70015 8.62927 8.70015C8.67841 8.70027 8.72558 8.72028 8.76013 8.75484C8.79482 8.78963 8.81479 8.83667 8.81482 8.8857V11.622C8.81452 11.6463 8.80882 11.6707 8.79919 11.6933L8.79822 11.6972C8.77939 11.7425 8.74286 11.778 8.69763 11.7968L8.69373 11.7988C8.67125 11.8084 8.64666 11.8131 8.62244 11.8134H5.88611C5.83714 11.8134 5.79 11.7944 5.75525 11.7597C5.7206 11.7251 5.70056 11.6771 5.70056 11.6279C5.70065 11.5787 5.72057 11.5317 5.75525 11.497C5.79001 11.4623 5.83706 11.4424 5.88611 11.4423H8.18494L7.32947 10.5888L3.69568 6.96187H3.69666C3.6614 6.92664 3.64101 6.87905 3.64099 6.82906C3.64099 6.77909 3.66136 6.73153 3.69666 6.69625V6.69527C3.71397 6.67801 3.73469 6.6646 3.7572 6.65523C3.78002 6.64578 3.80475 6.6406 3.82947 6.64058Z" fill="white" stroke="white"/>
</g>
<rect x="3.5" y="6.5" width="13" height="13" rx="1.5" stroke="white"/>
</g>
<defs>
<clipPath id="clip0_44_2">
<rect width="20" height="25" rx="6" fill="white"/>
</clipPath>
<clipPath id="clip1_44_2">
<rect x="3" y="6" width="14" height="14" rx="2" fill="white"/>
</clipPath>
</defs>
</svg>
