<svg width="21" height="25" viewBox="0 0 21 25" fill="none" xmlns="http://www.w3.org/2000/svg">
<rect width="21" height="25" rx="6" fill="#676FFF"/>
<path d="M17.625 9H16.0417C15.6217 9 15.219 9.18437 14.9221 9.51256C14.6251 9.84075 14.4583 10.2859 14.4583 10.75V14.25C14.4583 14.7141 14.6251 15.1592 14.9221 15.4874C15.219 15.8156 15.6217 16 16.0417 16H17.625V12.5H16.8333M8.91667 16V9H10.5C10.9199 9 11.3227 9.18437 11.6196 9.51256C11.9165 9.84075 12.0833 10.2859 12.0833 10.75C12.0833 11.2141 11.9165 11.6592 11.6196 11.9874C11.3227 12.3156 10.9199 12.5 10.5 12.5H8.91667M3.375 9H6.54167V14.25C6.54167 14.7141 6.37485 15.1592 6.07792 15.4874C5.78099 15.8156 5.37826 16 4.95833 16H3.77083C3.66585 16 3.56517 15.9539 3.49094 15.8719C3.4167 15.7898 3.375 15.6785 3.375 15.5625V15.125" stroke="white" stroke-linecap="round" stroke-linejoin="round"/>
</svg>
