<svg xmlns="http://www.w3.org/2000/svg" xmlns:xlink="http://www.w3.org/1999/xlink" width="301" height="250" viewBox="96.8575439453125 230.96800231933594 2242.6246337890625 1862.645034790039" style="">
<path fill-rule="nonzero" fill="rgb(99.609375%, 99.609375%, 99.609375%)" fill-opacity="1" d="M 2.34375 0 C 1.722656 0 1.125 0.25 0.6875 0.691406 C 0.246094 1.121094 0 1.71875 0 2.339844 L 0 2252.34375 C 0 2253.640625 1.050781 2254.6875 2.34375 2254.6875 L 6752.339844 2254.6875 C 6752.960938 2254.6875 6753.558594 2254.441406 6754 2254.003906 C 6754.441406 2253.5625 6754.691406 2252.96875 6754.691406 2252.34375 L 6754.691406 2.339844 C 6754.691406 1.050781 6753.640625 0 6752.339844 0 Z M 2.34375 0 "/>
<path fill-rule="nonzero" fill="rgb(10.594177%, 9.812927%, 9.812927%)" fill-opacity="1" d="M 1552.480469 1904.582031 C 1552.480469 1920.179688 1539.828125 1932.820312 1524.230469 1932.820312 L 866.4375 1932.820312 C 850.839844 1932.820312 838.203125 1920.179688 838.203125 1904.582031 C 838.203125 1888.980469 850.839844 1876.34375 866.4375 1876.34375 L 1524.230469 1876.34375 C 1539.828125 1876.34375 1552.480469 1888.980469 1552.480469 1904.582031 "/>
<path fill-rule="nonzero" fill="rgb(0%, 0%, 0%)" fill-opacity="1" d="M 1552.480469 1904.582031 C 1552.480469 1920.179688 1539.828125 1932.820312 1524.230469 1932.820312 L 866.4375 1932.820312 C 850.839844 1932.820312 838.203125 1920.179688 838.203125 1904.582031 C 838.203125 1888.980469 850.839844 1876.34375 866.4375 1876.34375 L 1524.230469 1876.34375 C 1539.828125 1876.34375 1552.480469 1888.980469 1552.480469 1904.582031 C 1552.480469 1888.980469 1539.828125 1876.34375 1524.230469 1876.34375 L 866.4375 1876.34375 C 850.839844 1876.34375 838.203125 1888.980469 838.203125 1904.582031 C 838.203125 1920.179688 850.839844 1932.820312 866.4375 1932.820312 L 1524.230469 1932.820312 C 1539.828125 1932.820312 1552.480469 1920.179688 1552.480469 1904.582031 Z M 1552.480469 1904.582031 "/>
<path fill-rule="nonzero" fill="rgb(10.594177%, 9.812927%, 9.812927%)" fill-opacity="1" d="M 1256.128906 1904.582031 L 1124.300781 1904.582031 L 1075.929688 1652.214844 L 1314.710938 1652.222656 L 1256.128906 1904.582031 "/>
<path fill-rule="nonzero" fill="rgb(0%, 0%, 0%)" fill-opacity="1" d="M 1256.128906 1904.582031 L 1124.300781 1904.582031 L 1075.929688 1652.214844 L 1314.710938 1652.222656 L 1256.128906 1904.582031 L 1314.710938 1652.222656 L 1075.929688 1652.214844 L 1124.300781 1904.582031 Z M 1256.128906 1904.582031 "/>
<path fill-rule="nonzero" fill="rgb(10.594177%, 9.812927%, 9.812927%)" fill-opacity="1" d="M 2091.511719 1578.675781 L 299.175781 1578.671875 L 299.171875 463.070312 L 2091.511719 463.070312 Z M 2027.871094 1634.542969 L 1975.261719 1634.542969 C 1967.550781 1634.542969 1961.308594 1628.292969 1961.308594 1620.582031 C 1961.308594 1612.875 1967.550781 1606.625 1975.261719 1606.625 L 2027.871094 1606.625 C 2035.578125 1606.625 2041.828125 1612.875 2041.828125 1620.582031 C 2041.828125 1628.292969 2035.578125 1634.542969 2027.871094 1634.542969 Z M 264.429688 428.328125 L 264.429688 1669.289062 L 2126.25 1669.289062 L 2126.25 428.328125 L 264.429688 428.328125 "/>
<path fill-rule="nonzero" fill="rgb(0%, 0%, 0%)" fill-opacity="1" d="M 2091.511719 1578.675781 L 299.175781 1578.671875 L 299.171875 463.070312 L 2091.511719 463.070312 L 2091.511719 1578.675781 M 2091.511719 1578.675781 L 2091.511719 463.070312 L 299.171875 463.070312 L 299.175781 1578.671875 Z M 2027.871094 1634.542969 L 1975.261719 1634.542969 C 1967.550781 1634.542969 1961.308594 1628.292969 1961.308594 1620.582031 C 1961.308594 1612.875 1967.550781 1606.625 1975.261719 1606.625 L 2027.871094 1606.625 C 2035.578125 1606.625 2041.828125 1612.875 2041.828125 1620.582031 C 2041.828125 1628.292969 2035.578125 1634.542969 2027.871094 1634.542969 M 2027.871094 1634.542969 C 2035.578125 1634.542969 2041.828125 1628.292969 2041.828125 1620.582031 C 2041.828125 1612.875 2035.578125 1606.625 2027.871094 1606.625 L 1975.261719 1606.625 C 1967.550781 1606.625 1961.308594 1612.875 1961.308594 1620.582031 C 1961.308594 1628.292969 1967.550781 1634.542969 1975.261719 1634.542969 Z M 264.429688 428.328125 L 264.429688 1669.289062 L 2126.25 1669.289062 L 2126.25 428.328125 L 264.429688 428.328125 L 2126.25 428.328125 L 2126.25 1669.289062 L 264.429688 1669.289062 Z M 264.429688 428.328125 "/>
<path fill-rule="nonzero" fill="rgb(0%, 0%, 0%)" fill-opacity="1" d="M 3670.089844 1615.519531 L 3313.429688 1615.519531 C 3501.640625 1716.152344 3387.890625 1814.023438 3325.53125 1853.75 L 3657.980469 1853.753906 C 3595.609375 1814.023438 3481.859375 1716.152344 3670.089844 1615.519531 "/>
<path fill-rule="nonzero" fill="rgb(0%, 0%, 0%)" fill-opacity="1" d="M 3670.089844 1615.519531 L 3313.429688 1615.519531 C 3421.730469 1673.425781 3430.050781 1730.417969 3405.710938 1775.941406 C 3387.75 1809.53125 3352.011719 1836.878906 3325.53125 1853.75 L 3657.980469 1853.753906 C 3610.941406 1823.789062 3534.679688 1760.761719 3580.769531 1688.417969 C 3595.789062 1664.835938 3623.808594 1640.261719 3670.089844 1615.519531 C 3623.808594 1640.261719 3595.789062 1664.835938 3580.769531 1688.417969 C 3534.679688 1760.761719 3610.941406 1823.789062 3657.980469 1853.753906 L 3325.53125 1853.75 C 3352.011719 1836.878906 3387.75 1809.53125 3405.710938 1775.941406 C 3430.050781 1730.417969 3421.730469 1673.425781 3313.429688 1615.519531 Z M 3670.089844 1615.519531 "/>
<path fill-rule="nonzero" fill="rgb(0%, 0%, 0%)" fill-opacity="1" d="M 4473.300781 1492.21875 L 2510.199219 1492.21875 L 2510.199219 372.21875 L 4473.300781 372.21875 Z M 4394.980469 1569.648438 C 4380.390625 1569.648438 4368.570312 1557.808594 4368.570312 1543.222656 C 4368.570312 1528.636719 4380.390625 1516.800781 4394.980469 1516.800781 C 4409.578125 1516.800781 4421.390625 1528.636719 4421.390625 1543.222656 C 4421.390625 1557.808594 4409.578125 1569.648438 4394.980469 1569.648438 Z M 4328.230469 1560.847656 C 4318.5 1560.847656 4310.628906 1552.949219 4310.628906 1543.222656 C 4310.628906 1533.5 4318.5 1525.625 4328.230469 1525.625 C 4337.941406 1525.625 4345.839844 1533.5 4345.839844 1543.222656 C 4345.839844 1552.949219 4337.941406 1560.847656 4328.230469 1560.847656 Z M 4283.460938 1560.847656 C 4273.75 1560.847656 4265.859375 1552.949219 4265.859375 1543.222656 C 4265.859375 1533.5 4273.75 1525.625 4283.460938 1525.625 C 4293.179688 1525.625 4301.070312 1533.5 4301.070312 1543.222656 C 4301.070312 1552.949219 4293.179688 1560.847656 4283.460938 1560.847656 Z M 4238.710938 1560.847656 C 4228.988281 1560.847656 4221.109375 1552.949219 4221.109375 1543.222656 C 4221.109375 1533.5 4228.988281 1525.625 4238.710938 1525.625 C 4248.441406 1525.625 4256.328125 1533.5 4256.328125 1543.222656 C 4256.328125 1552.949219 4248.441406 1560.847656 4238.710938 1560.847656 Z M 4193.96875 1560.847656 C 4184.230469 1560.847656 4176.351562 1552.949219 4176.351562 1543.222656 C 4176.351562 1533.5 4184.230469 1525.625 4193.96875 1525.625 C 4203.679688 1525.625 4211.578125 1533.5 4211.578125 1543.222656 C 4211.578125 1552.949219 4203.679688 1560.847656 4193.96875 1560.847656 Z M 4444.171875 323.738281 L 2539.339844 323.738281 C 2498.328125 323.738281 2465.050781 357.03125 2465.050781 398.050781 L 2465.050781 1519.195312 C 2465.050781 1560.234375 2498.328125 1593.5 2539.339844 1593.5 L 4444.171875 1593.496094 C 4485.191406 1593.5 4518.449219 1560.234375 4518.449219 1519.195312 L 4518.449219 398.050781 C 4518.449219 357.03125 4485.191406 323.738281 4444.171875 323.738281 "/>
<path fill-rule="nonzero" fill="rgb(0%, 0%, 0%)" fill-opacity="1" d="M 4473.300781 1492.21875 L 2510.199219 1492.21875 L 2510.199219 372.21875 L 4473.300781 372.21875 L 4473.300781 1492.21875 M 4473.300781 1492.21875 L 4473.300781 372.21875 L 2510.199219 372.21875 L 2510.199219 1492.21875 Z M 4394.980469 1569.648438 C 4380.390625 1569.648438 4368.570312 1557.808594 4368.570312 1543.222656 C 4368.570312 1528.636719 4380.390625 1516.800781 4394.980469 1516.800781 C 4409.578125 1516.800781 4421.390625 1528.636719 4421.390625 1543.222656 C 4421.390625 1557.808594 4409.578125 1569.648438 4394.980469 1569.648438 M 4394.980469 1569.648438 C 4409.578125 1569.648438 4421.390625 1557.808594 4421.390625 1543.222656 C 4421.390625 1528.636719 4409.578125 1516.800781 4394.980469 1516.800781 C 4380.390625 1516.800781 4368.570312 1528.636719 4368.570312 1543.222656 C 4368.570312 1557.808594 4380.390625 1569.648438 4394.980469 1569.648438 Z M 4328.230469 1560.847656 C 4318.5 1560.847656 4310.628906 1552.949219 4310.628906 1543.222656 C 4310.628906 1533.5 4318.5 1525.625 4328.230469 1525.625 C 4337.941406 1525.625 4345.839844 1533.5 4345.839844 1543.222656 C 4345.839844 1552.949219 4337.941406 1560.847656 4328.230469 1560.847656 M 4328.230469 1560.847656 C 4337.941406 1560.847656 4345.839844 1552.949219 4345.839844 1543.222656 C 4345.839844 1533.5 4337.941406 1525.625 4328.230469 1525.625 C 4318.5 1525.625 4310.628906 1533.5 4310.628906 1543.222656 C 4310.628906 1552.949219 4318.5 1560.847656 4328.230469 1560.847656 Z M 4283.460938 1560.847656 C 4273.75 1560.847656 4265.859375 1552.949219 4265.859375 1543.222656 C 4265.859375 1533.5 4273.75 1525.625 4283.460938 1525.625 C 4293.179688 1525.625 4301.070312 1533.5 4301.070312 1543.222656 C 4301.070312 1552.949219 4293.179688 1560.847656 4283.460938 1560.847656 M 4283.460938 1560.847656 C 4293.179688 1560.847656 4301.070312 1552.949219 4301.070312 1543.222656 C 4301.070312 1533.5 4293.179688 1525.625 4283.460938 1525.625 C 4273.75 1525.625 4265.859375 1533.5 4265.859375 1543.222656 C 4265.859375 1552.949219 4273.75 1560.847656 4283.460938 1560.847656 Z M 4238.710938 1560.847656 C 4228.988281 1560.847656 4221.109375 1552.949219 4221.109375 1543.222656 C 4221.109375 1533.5 4228.988281 1525.625 4238.710938 1525.625 C 4248.441406 1525.625 4256.328125 1533.5 4256.328125 1543.222656 C 4256.328125 1552.949219 4248.441406 1560.847656 4238.710938 1560.847656 M 4238.710938 1560.847656 C 4248.441406 1560.847656 4256.328125 1552.949219 4256.328125 1543.222656 C 4256.328125 1533.5 4248.441406 1525.625 4238.710938 1525.625 C 4228.988281 1525.625 4221.109375 1533.5 4221.109375 1543.222656 C 4221.109375 1552.949219 4228.988281 1560.847656 4238.710938 1560.847656 Z M 4193.96875 1560.847656 C 4184.230469 1560.847656 4176.351562 1552.949219 4176.351562 1543.222656 C 4176.351562 1533.5 4184.230469 1525.625 4193.96875 1525.625 C 4203.679688 1525.625 4211.578125 1533.5 4211.578125 1543.222656 C 4211.578125 1552.949219 4203.679688 1560.847656 4193.96875 1560.847656 M 4193.96875 1560.847656 C 4203.679688 1560.847656 4211.578125 1552.949219 4211.578125 1543.222656 C 4211.578125 1533.5 4203.679688 1525.625 4193.96875 1525.625 C 4184.230469 1525.625 4176.351562 1533.5 4176.351562 1543.222656 C 4176.351562 1552.949219 4184.230469 1560.847656 4193.96875 1560.847656 Z M 4444.171875 323.738281 L 2539.339844 323.738281 C 2498.328125 323.738281 2465.050781 357.03125 2465.050781 398.050781 L 2465.050781 1519.195312 C 2465.050781 1560.234375 2498.328125 1593.5 2539.339844 1593.5 L 4444.171875 1593.496094 C 4485.191406 1593.5 4518.449219 1560.234375 4518.449219 1519.195312 L 4518.449219 398.050781 C 4518.449219 357.03125 4485.191406 323.738281 4444.171875 323.738281 C 4485.191406 323.738281 4518.449219 357.03125 4518.449219 398.050781 L 4518.449219 1519.195312 C 4518.449219 1560.234375 4485.191406 1593.5 4444.171875 1593.496094 L 2539.339844 1593.5 C 2498.328125 1593.5 2465.050781 1560.234375 2465.050781 1519.195312 L 2465.050781 398.050781 C 2465.050781 357.03125 2498.328125 323.738281 2539.339844 323.738281 Z M 4444.171875 323.738281 "/>
<path fill-rule="nonzero" fill="rgb(0%, 0%, 0%)" fill-opacity="1" d="M 3793.179688 1875.773438 L 3190.320312 1875.777344 C 3140.359375 1875.773438 3099.890625 1902.640625 3099.890625 1935.78125 L 3883.628906 1935.78125 C 3883.628906 1902.640625 3843.140625 1875.773438 3793.179688 1875.773438 "/>
<path fill-rule="nonzero" fill="rgb(0%, 0%, 0%)" fill-opacity="1" d="M 3793.179688 1875.773438 L 3190.320312 1875.777344 C 3140.359375 1875.773438 3099.890625 1902.640625 3099.890625 1935.78125 L 3883.628906 1935.78125 C 3883.628906 1902.640625 3843.140625 1875.773438 3793.179688 1875.773438 C 3843.140625 1875.773438 3883.628906 1902.640625 3883.628906 1935.78125 L 3099.890625 1935.78125 C 3099.890625 1902.640625 3140.359375 1875.773438 3190.320312 1875.777344 Z M 3793.179688 1875.773438 "/>
<path fill-rule="nonzero" fill="rgb(0%, 0%, 0%)" fill-opacity="1" d="M 4913.410156 1377.519531 L 6397.820312 1377.519531 C 6397.820312 1412.554688 6397.820312 1447.59375 6397.820312 1482.640625 C 5903.019531 1482.640625 5408.210938 1482.640625 4913.410156 1482.640625 C 4913.410156 1447.59375 4913.410156 1412.554688 4913.410156 1377.519531 "/>
<path fill-rule="nonzero" fill="rgb(0%, 0%, 0%)" fill-opacity="1" d="M 4913.410156 1377.519531 L 6397.820312 1377.519531 L 6397.820312 1482.640625 L 4913.410156 1482.640625 L 4913.410156 1377.519531 L 4913.410156 1482.640625 L 6397.820312 1482.640625 L 6397.820312 1377.519531 Z M 4913.410156 1377.519531 "/>
<path fill-rule="nonzero" fill="rgb(0%, 0%, 0%)" fill-opacity="1" d="M 6407.339844 435.839844 L 4903.78125 435.839844 C 4901.140625 435.839844 4898.5 435.949219 4895.878906 436.21875 C 4893.25 436.460938 4890.640625 436.859375 4888.050781 437.371094 C 4885.46875 437.890625 4882.921875 438.53125 4880.398438 439.289062 C 4877.859375 440.058594 4875.378906 440.949219 4872.949219 441.960938 C 4870.519531 442.96875 4868.128906 444.101562 4865.800781 445.351562 C 4863.460938 446.589844 4861.21875 447.941406 4859.019531 449.410156 C 4856.820312 450.871094 4854.710938 452.441406 4852.679688 454.128906 C 4850.640625 455.800781 4848.679688 457.558594 4846.808594 459.441406 C 4844.949219 461.300781 4843.179688 463.25 4841.511719 465.28125 C 4839.820312 467.339844 4838.269531 469.449219 4836.800781 471.648438 C 4835.339844 473.851562 4833.96875 476.109375 4832.738281 478.429688 C 4831.480469 480.769531 4830.371094 483.140625 4829.359375 485.589844 C 4828.339844 488.019531 4827.460938 490.5 4826.691406 493.03125 C 4825.929688 495.558594 4825.289062 498.109375 4824.769531 500.699219 C 4824.25 503.300781 4823.871094 505.890625 4823.621094 508.53125 C 4823.359375 511.148438 4823.230469 513.789062 4823.230469 516.421875 L 4823.230469 1483.578125 C 4823.230469 1486.226562 4823.359375 1488.855469 4823.621094 1491.480469 C 4823.871094 1494.117188 4824.25 1496.71875 4824.769531 1499.304688 C 4825.289062 1501.890625 4825.921875 1504.457031 4826.691406 1506.976562 C 4827.460938 1509.503906 4828.339844 1511.992188 4829.359375 1514.425781 C 4830.371094 1516.871094 4831.480469 1519.246094 4832.738281 1521.574219 C 4833.96875 1523.910156 4835.339844 1526.171875 4836.800781 1528.359375 C 4838.269531 1530.558594 4839.820312 1532.675781 4841.511719 1534.714844 C 4843.179688 1536.757812 4844.949219 1538.710938 4846.808594 1540.570312 C 4848.679688 1542.4375 4850.640625 1544.214844 4852.679688 1545.886719 C 4854.710938 1547.566406 4856.820312 1549.132812 4859.019531 1550.601562 C 4861.21875 1552.066406 4863.460938 1553.421875 4865.800781 1554.664062 C 4868.128906 1555.914062 4870.519531 1557.035156 4872.949219 1558.046875 C 4875.378906 1559.050781 4877.859375 1559.949219 4880.398438 1560.703125 C 4882.921875 1561.480469 4885.46875 1562.121094 4888.050781 1562.636719 C 4890.640625 1563.152344 4893.25 1563.527344 4895.878906 1563.792969 C 4898.5 1564.058594 4901.140625 1564.179688 4903.78125 1564.179688 L 5478.609375 1564.179688 C 5478.609375 1564.179688 5577.960938 1859.699219 5279.679688 1940.300781 L 6031.460938 1940.300781 C 5733.148438 1859.699219 5832.488281 1564.179688 5832.488281 1564.179688 L 6407.339844 1564.179688 C 6409.980469 1564.179688 6412.621094 1564.058594 6415.25 1563.792969 C 6417.851562 1563.527344 6420.480469 1563.152344 6423.058594 1562.636719 C 6425.640625 1562.121094 6428.199219 1561.480469 6430.71875 1560.703125 C 6433.25 1559.949219 6435.738281 1559.050781 6438.171875 1558.046875 C 6440.609375 1557.035156 6443 1555.914062 6445.308594 1554.664062 C 6447.640625 1553.421875 6449.898438 1552.066406 6452.101562 1550.601562 C 6454.300781 1549.132812 6456.410156 1547.566406 6458.441406 1545.886719 C 6460.5 1544.214844 6462.429688 1542.4375 6464.289062 1540.570312 C 6466.171875 1538.710938 6467.941406 1536.757812 6469.609375 1534.714844 C 6471.289062 1532.675781 6472.859375 1530.558594 6474.320312 1528.359375 C 6475.789062 1526.171875 6477.140625 1523.910156 6478.378906 1521.574219 C 6479.628906 1519.246094 6480.75 1516.871094 6481.769531 1514.425781 C 6482.78125 1511.992188 6483.660156 1509.503906 6484.429688 1506.976562 C 6485.179688 1504.457031 6485.828125 1501.890625 6486.359375 1499.304688 C 6486.871094 1496.71875 6487.25 1494.117188 6487.511719 1491.480469 C 6487.78125 1488.855469 6487.890625 1486.226562 6487.890625 1483.578125 L 6487.890625 516.421875 C 6487.890625 513.789062 6487.78125 511.148438 6487.511719 508.53125 C 6487.25 505.890625 6486.871094 503.300781 6486.359375 500.699219 C 6485.828125 498.109375 6485.179688 495.558594 6484.429688 493.03125 C 6483.660156 490.5 6482.78125 488.019531 6481.769531 485.589844 C 6480.761719 483.140625 6479.628906 480.769531 6478.378906 478.429688 C 6477.140625 476.101562 6475.789062 473.851562 6474.320312 471.648438 C 6472.859375 469.449219 6471.289062 467.339844 6469.609375 465.28125 C 6467.941406 463.25 6466.171875 461.300781 6464.289062 459.441406 C 6462.429688 457.558594 6460.5 455.800781 6458.441406 454.128906 C 6456.410156 452.441406 6454.300781 450.871094 6452.101562 449.410156 C 6449.898438 447.941406 6447.640625 446.589844 6445.308594 445.351562 C 6443 444.101562 6440.609375 442.96875 6438.171875 441.960938 C 6435.738281 440.949219 6433.25 440.058594 6430.71875 439.289062 C 6428.199219 438.53125 6425.640625 437.890625 6423.058594 437.371094 C 6420.480469 436.859375 6417.851562 436.460938 6415.25 436.21875 C 6412.621094 435.949219 6409.980469 435.839844 6407.339844 435.839844 Z M 6434.199219 1483.578125 C 6434.199219 1485.34375 6434.019531 1487.089844 6433.691406 1488.828125 C 6433.339844 1490.554688 6432.839844 1492.238281 6432.140625 1493.871094 C 6431.488281 1495.496094 6430.648438 1497.042969 6429.671875 1498.507812 C 6428.699219 1499.972656 6427.570312 1501.328125 6426.339844 1502.585938 C 6425.078125 1503.828125 6423.730469 1504.945312 6422.25 1505.921875 C 6420.789062 1506.894531 6419.25 1507.734375 6417.621094 1508.410156 C 6415.988281 1509.078125 6414.320312 1509.582031 6412.589844 1509.933594 C 6410.851562 1510.28125 6409.109375 1510.453125 6407.339844 1510.453125 L 4903.78125 1510.457031 C 4902 1510.453125 4900.261719 1510.28125 4898.53125 1509.933594 C 4896.800781 1509.582031 4895.128906 1509.078125 4893.480469 1508.410156 C 4891.859375 1507.734375 4890.320312 1506.894531 4888.859375 1505.921875 C 4887.390625 1504.945312 4886.019531 1503.828125 4884.789062 1502.585938 C 4883.550781 1501.328125 4882.429688 1499.972656 4881.449219 1498.507812 C 4880.46875 1497.042969 4879.648438 1495.496094 4878.960938 1493.871094 C 4878.289062 1492.238281 4877.789062 1490.554688 4877.449219 1488.828125 C 4877.078125 1487.089844 4876.921875 1485.34375 4876.921875 1483.578125 L 4876.921875 1349.257812 L 6434.199219 1349.257812 Z M 6434.199219 1295.523438 L 4876.921875 1295.523438 L 4876.921875 516.421875 C 4876.921875 514.660156 4877.089844 512.910156 4877.449219 511.179688 C 4877.789062 509.449219 4878.289062 507.769531 4878.960938 506.140625 C 4879.648438 504.511719 4880.46875 502.960938 4881.449219 501.5 C 4882.429688 500.03125 4883.550781 498.679688 4884.789062 497.429688 C 4886.03125 496.171875 4887.390625 495.070312 4888.859375 494.089844 C 4890.320312 493.109375 4891.859375 492.28125 4893.488281 491.601562 C 4895.128906 490.941406 4896.800781 490.410156 4898.53125 490.070312 C 4900.261719 489.738281 4902 489.558594 4903.78125 489.558594 L 6407.339844 489.558594 C 6409.109375 489.558594 6410.851562 489.738281 6412.589844 490.070312 C 6414.320312 490.410156 6415.988281 490.941406 6417.621094 491.601562 C 6419.25 492.28125 6420.789062 493.109375 6422.25 494.089844 C 6423.730469 495.070312 6425.078125 496.171875 6426.339844 497.429688 C 6427.570312 498.679688 6428.699219 500.03125 6429.671875 501.5 C 6430.648438 502.960938 6431.488281 504.511719 6432.148438 506.140625 C 6432.839844 507.769531 6433.339844 509.449219 6433.691406 511.179688 C 6434.019531 512.910156 6434.199219 514.660156 6434.199219 516.421875 Z M 6434.199219 1295.523438 "/>
<path fill-rule="nonzero" fill="rgb(0%, 0%, 0%)" fill-opacity="1" d="M 6407.339844 435.839844 L 4903.78125 435.839844 C 4901.140625 435.839844 4898.5 435.949219 4895.878906 436.21875 C 4893.261719 436.460938 4890.640625 436.859375 4888.050781 437.371094 C 4885.46875 437.890625 4882.910156 438.53125 4880.398438 439.289062 C 4877.859375 440.058594 4875.390625 440.949219 4872.949219 441.960938 C 4870.519531 442.96875 4868.128906 444.101562 4865.800781 445.351562 C 4863.460938 446.589844 4861.21875 447.941406 4859.019531 449.410156 C 4856.820312 450.871094 4854.710938 452.441406 4852.679688 454.128906 C 4850.648438 455.789062 4848.671875 457.570312 4846.808594 459.441406 C 4844.949219 461.300781 4843.179688 463.25 4841.511719 465.28125 C 4839.820312 467.339844 4838.269531 469.441406 4836.800781 471.648438 C 4835.339844 473.828125 4833.960938 476.121094 4832.738281 478.429688 C 4831.46875 480.78125 4830.371094 483.128906 4829.359375 485.589844 C 4828.339844 488.019531 4827.460938 490.5 4826.691406 493.03125 C 4825.921875 495.570312 4825.300781 498.101562 4824.769531 500.699219 C 4824.25 503.289062 4823.871094 505.898438 4823.621094 508.53125 C 4823.359375 511.148438 4823.230469 513.800781 4823.230469 516.421875 L 4823.230469 1483.578125 C 4823.230469 1486.21875 4823.359375 1488.859375 4823.621094 1491.480469 L 4823.628906 1491.5 C 4823.871094 1494.121094 4824.25 1496.734375 4824.769531 1499.304688 L 4824.769531 1499.324219 C 4825.300781 1501.90625 4825.929688 1504.460938 4826.691406 1506.976562 C 4827.460938 1509.503906 4828.339844 1511.988281 4829.359375 1514.425781 C 4830.359375 1516.867188 4831.480469 1519.253906 4832.738281 1521.574219 C 4833.96875 1523.90625 4835.339844 1526.175781 4836.800781 1528.359375 C 4838.269531 1530.558594 4839.820312 1532.675781 4841.511719 1534.714844 C 4843.179688 1536.753906 4844.949219 1538.714844 4846.808594 1540.570312 C 4848.671875 1542.429688 4850.648438 1544.222656 4852.679688 1545.886719 C 4854.71875 1547.566406 4856.820312 1549.132812 4859.019531 1550.601562 C 4861.21875 1552.066406 4863.460938 1553.421875 4865.800781 1554.664062 C 4868.128906 1555.910156 4870.519531 1557.035156 4872.949219 1558.046875 C 4875.390625 1559.050781 4877.859375 1559.949219 4880.398438 1560.703125 C 4882.921875 1561.480469 4885.46875 1562.121094 4888.050781 1562.636719 C 4890.640625 1563.148438 4893.25 1563.527344 4895.878906 1563.792969 C 4898.5 1564.058594 4901.140625 1564.179688 4903.78125 1564.179688 L 5478.609375 1564.179688 C 5478.640625 1564.273438 5494.488281 1611.476562 5494.488281 1673.269531 C 5494.488281 1766.125 5458.699219 1891.925781 5279.679688 1940.300781 L 6031.460938 1940.300781 C 5765.539062 1868.453125 5815.609375 1625.828125 5829.609375 1573.980469 C 5831.320312 1567.65625 5832.488281 1564.191406 5832.488281 1564.179688 L 6407.339844 1564.179688 C 6409.980469 1564.179688 6412.621094 1564.058594 6415.25 1563.792969 C 6417.851562 1563.527344 6420.480469 1563.148438 6423.058594 1562.636719 C 6425.640625 1562.121094 6428.199219 1561.480469 6430.71875 1560.703125 C 6433.25 1559.949219 6435.738281 1559.050781 6438.171875 1558.046875 C 6440.609375 1557.03125 6442.988281 1555.914062 6445.308594 1554.664062 C 6447.628906 1553.425781 6449.898438 1552.0625 6452.101562 1550.601562 C 6454.300781 1549.132812 6456.410156 1547.566406 6458.441406 1545.886719 C 6460.5 1544.210938 6462.429688 1542.441406 6464.289062 1540.570312 C 6466.160156 1538.714844 6467.949219 1536.75 6469.609375 1534.714844 C 6471.289062 1532.667969 6472.851562 1530.566406 6474.320312 1528.359375 C 6475.789062 1526.164062 6477.128906 1523.914062 6478.378906 1521.574219 C 6479.628906 1519.25 6480.761719 1516.867188 6481.769531 1514.425781 C 6482.78125 1511.988281 6483.660156 1509.503906 6484.429688 1506.976562 C 6485.179688 1504.457031 6485.828125 1501.890625 6486.359375 1499.304688 C 6486.871094 1496.730469 6487.25 1494.105469 6487.511719 1491.480469 C 6487.78125 1488.835938 6487.890625 1486.242188 6487.890625 1483.578125 L 6487.890625 516.421875 C 6487.890625 513.789062 6487.78125 511.160156 6487.511719 508.53125 C 6487.25 505.878906 6486.871094 503.308594 6486.359375 500.699219 C 6485.820312 498.089844 6485.191406 495.570312 6484.429688 493.03125 C 6483.660156 490.511719 6482.769531 488.011719 6481.769531 485.589844 C 6480.75 483.128906 6479.628906 480.769531 6478.378906 478.429688 C 6477.128906 476.101562 6475.789062 473.851562 6474.320312 471.648438 C 6472.851562 469.441406 6471.289062 467.339844 6469.609375 465.28125 C 6467.941406 463.25 6466.171875 461.300781 6464.289062 459.441406 C 6462.429688 457.558594 6460.5 455.800781 6458.441406 454.128906 C 6456.410156 452.441406 6454.300781 450.871094 6452.101562 449.410156 C 6449.898438 447.941406 6447.640625 446.589844 6445.308594 445.351562 C 6442.988281 444.101562 6440.609375 442.980469 6438.171875 441.960938 L 6438.160156 441.960938 C 6435.730469 440.949219 6433.238281 440.058594 6430.71875 439.289062 C 6428.199219 438.53125 6425.640625 437.890625 6423.058594 437.371094 C 6420.480469 436.859375 6417.851562 436.460938 6415.25 436.21875 C 6412.628906 435.949219 6409.980469 435.839844 6407.339844 435.839844 M 6407.339844 435.839844 C 6409.980469 435.839844 6412.628906 435.949219 6415.25 436.21875 C 6417.851562 436.460938 6420.480469 436.859375 6423.058594 437.371094 C 6425.640625 437.890625 6428.199219 438.53125 6430.71875 439.289062 C 6433.238281 440.058594 6435.730469 440.949219 6438.160156 441.960938 L 6438.171875 441.960938 C 6440.609375 442.980469 6442.988281 444.101562 6445.308594 445.351562 C 6447.640625 446.589844 6449.898438 447.941406 6452.101562 449.410156 C 6454.300781 450.871094 6456.410156 452.441406 6458.441406 454.128906 C 6460.5 455.800781 6462.429688 457.558594 6464.289062 459.441406 C 6466.171875 461.300781 6467.941406 463.25 6469.609375 465.28125 C 6471.289062 467.339844 6472.851562 469.441406 6474.320312 471.648438 C 6475.789062 473.851562 6477.128906 476.101562 6478.378906 478.429688 C 6479.628906 480.769531 6480.75 483.128906 6481.769531 485.589844 C 6482.769531 488.011719 6483.660156 490.511719 6484.429688 493.03125 C 6485.191406 495.570312 6485.820312 498.089844 6486.359375 500.699219 C 6486.871094 503.308594 6487.25 505.878906 6487.511719 508.53125 C 6487.78125 511.160156 6487.890625 513.789062 6487.890625 516.421875 L 6487.890625 1483.578125 C 6487.890625 1486.242188 6487.78125 1488.835938 6487.511719 1491.480469 C 6487.25 1494.105469 6486.871094 1496.730469 6486.359375 1499.304688 C 6485.828125 1501.890625 6485.179688 1504.457031 6484.429688 1506.976562 C 6483.660156 1509.503906 6482.78125 1511.988281 6481.769531 1514.425781 C 6480.761719 1516.867188 6479.628906 1519.25 6478.378906 1521.574219 C 6477.128906 1523.914062 6475.789062 1526.164062 6474.320312 1528.359375 C 6472.851562 1530.566406 6471.289062 1532.667969 6469.609375 1534.714844 C 6467.949219 1536.75 6466.160156 1538.714844 6464.289062 1540.570312 C 6462.429688 1542.441406 6460.5 1544.210938 6458.441406 1545.886719 C 6456.410156 1547.566406 6454.300781 1549.132812 6452.101562 1550.601562 C 6449.898438 1552.0625 6447.628906 1553.425781 6445.308594 1554.664062 C 6442.988281 1555.914062 6440.609375 1557.03125 6438.171875 1558.046875 C 6435.738281 1559.050781 6433.25 1559.949219 6430.71875 1560.703125 C 6428.199219 1561.480469 6425.640625 1562.121094 6423.058594 1562.636719 C 6420.480469 1563.148438 6417.851562 1563.527344 6415.25 1563.792969 C 6412.621094 1564.058594 6409.980469 1564.179688 6407.339844 1564.179688 L 5832.488281 1564.179688 C 5832.488281 1564.191406 5831.320312 1567.65625 5829.609375 1573.980469 C 5815.609375 1625.828125 5765.539062 1868.453125 6031.460938 1940.300781 L 5279.679688 1940.300781 C 5458.699219 1891.925781 5494.488281 1766.125 5494.488281 1673.269531 C 5494.488281 1611.476562 5478.640625 1564.273438 5478.609375 1564.179688 L 4903.78125 1564.179688 C 4901.140625 1564.179688 4898.5 1564.058594 4895.878906 1563.792969 C 4893.25 1563.527344 4890.640625 1563.148438 4888.050781 1562.636719 C 4885.46875 1562.121094 4882.921875 1561.480469 4880.398438 1560.703125 C 4877.859375 1559.949219 4875.390625 1559.050781 4872.949219 1558.046875 C 4870.519531 1557.035156 4868.128906 1555.910156 4865.800781 1554.664062 C 4863.460938 1553.421875 4861.21875 1552.066406 4859.019531 1550.601562 C 4856.820312 1549.132812 4854.71875 1547.566406 4852.679688 1545.886719 C 4850.648438 1544.222656 4848.671875 1542.429688 4846.808594 1540.570312 C 4844.949219 1538.714844 4843.179688 1536.753906 4841.511719 1534.714844 C 4839.820312 1532.675781 4838.269531 1530.558594 4836.800781 1528.359375 C 4835.339844 1526.175781 4833.96875 1523.90625 4832.738281 1521.574219 C 4831.480469 1519.253906 4830.359375 1516.867188 4829.359375 1514.425781 C 4828.339844 1511.988281 4827.460938 1509.503906 4826.691406 1506.976562 C 4825.929688 1504.460938 4825.300781 1501.90625 4824.769531 1499.324219 L 4824.769531 1499.304688 C 4824.25 1496.734375 4823.871094 1494.121094 4823.628906 1491.5 L 4823.621094 1491.480469 C 4823.359375 1488.859375 4823.230469 1486.21875 4823.230469 1483.578125 L 4823.230469 516.421875 C 4823.230469 513.800781 4823.359375 511.148438 4823.621094 508.53125 C 4823.871094 505.898438 4824.25 503.289062 4824.769531 500.699219 C 4825.300781 498.101562 4825.921875 495.570312 4826.691406 493.03125 C 4827.460938 490.5 4828.339844 488.019531 4829.359375 485.589844 C 4830.371094 483.128906 4831.46875 480.78125 4832.738281 478.429688 C 4833.960938 476.121094 4835.339844 473.828125 4836.800781 471.648438 C 4838.269531 469.441406 4839.820312 467.339844 4841.511719 465.28125 C 4843.179688 463.25 4844.949219 461.300781 4846.808594 459.441406 C 4848.671875 457.570312 4850.648438 455.789062 4852.679688 454.128906 C 4854.710938 452.441406 4856.820312 450.871094 4859.019531 449.410156 C 4861.21875 447.941406 4863.460938 446.589844 4865.800781 445.351562 C 4868.128906 444.101562 4870.519531 442.96875 4872.949219 441.960938 C 4875.390625 440.949219 4877.859375 440.058594 4880.398438 439.289062 C 4882.910156 438.53125 4885.46875 437.890625 4888.050781 437.371094 C 4890.640625 436.859375 4893.261719 436.460938 4895.878906 436.21875 C 4898.5 435.949219 4901.140625 435.839844 4903.78125 435.839844 Z M 6434.199219 1483.578125 C 6434.199219 1485.34375 6434.019531 1487.089844 6433.691406 1488.828125 L 6433.679688 1488.839844 C 6433.328125 1490.558594 6432.828125 1492.242188 6432.140625 1493.871094 C 6431.488281 1495.496094 6430.648438 1497.042969 6429.671875 1498.507812 L 6429.660156 1498.511719 C 6428.699219 1499.976562 6427.570312 1501.332031 6426.339844 1502.585938 C 6425.078125 1503.824219 6423.730469 1504.945312 6422.25 1505.921875 C 6420.789062 1506.894531 6419.25 1507.734375 6417.621094 1508.410156 C 6416 1509.078125 6414.320312 1509.582031 6412.589844 1509.933594 C 6410.851562 1510.28125 6409.101562 1510.453125 6407.339844 1510.453125 L 4903.78125 1510.457031 C 4902 1510.453125 4900.261719 1510.28125 4898.53125 1509.933594 L 4898.53125 1509.929688 C 4896.800781 1509.582031 4895.128906 1509.078125 4893.480469 1508.410156 C 4891.859375 1507.734375 4890.320312 1506.894531 4888.859375 1505.921875 C 4887.390625 1504.945312 4886.019531 1503.828125 4884.789062 1502.585938 C 4883.550781 1501.332031 4882.429688 1499.972656 4881.449219 1498.507812 C 4880.46875 1497.042969 4879.648438 1495.496094 4878.960938 1493.871094 C 4878.289062 1492.238281 4877.789062 1490.550781 4877.449219 1488.828125 C 4877.078125 1487.082031 4876.921875 1485.351562 4876.921875 1483.578125 L 4876.921875 1349.257812 L 6434.199219 1349.257812 L 6434.199219 1483.578125 M 6434.199219 1483.578125 L 6434.199219 1349.257812 L 4876.921875 1349.257812 L 4876.921875 1483.578125 C 4876.921875 1485.351562 4877.078125 1487.082031 4877.449219 1488.828125 C 4877.789062 1490.550781 4878.289062 1492.238281 4878.960938 1493.871094 C 4879.648438 1495.496094 4880.46875 1497.042969 4881.449219 1498.507812 C 4882.429688 1499.972656 4883.550781 1501.332031 4884.789062 1502.585938 C 4886.019531 1503.828125 4887.390625 1504.945312 4888.859375 1505.921875 C 4890.320312 1506.894531 4891.859375 1507.734375 4893.480469 1508.410156 C 4895.128906 1509.078125 4896.800781 1509.582031 4898.53125 1509.929688 L 4898.53125 1509.933594 C 4900.261719 1510.28125 4902 1510.453125 4903.78125 1510.457031 L 6407.339844 1510.453125 C 6409.101562 1510.453125 6410.851562 1510.28125 6412.589844 1509.933594 C 6414.320312 1509.582031 6416 1509.078125 6417.621094 1508.410156 C 6419.25 1507.734375 6420.789062 1506.894531 6422.25 1505.921875 C 6423.730469 1504.945312 6425.078125 1503.824219 6426.339844 1502.585938 C 6427.570312 1501.332031 6428.699219 1499.976562 6429.660156 1498.511719 L 6429.671875 1498.507812 C 6430.648438 1497.042969 6431.488281 1495.496094 6432.140625 1493.871094 C 6432.828125 1492.242188 6433.328125 1490.558594 6433.679688 1488.839844 L 6433.691406 1488.828125 C 6434.019531 1487.089844 6434.199219 1485.34375 6434.199219 1483.578125 Z M 6434.199219 1295.523438 L 4876.921875 1295.523438 L 4876.921875 516.421875 C 4876.921875 514.660156 4877.089844 512.910156 4877.449219 511.179688 C 4877.789062 509.460938 4878.289062 507.769531 4878.960938 506.140625 C 4879.648438 504.511719 4880.46875 502.960938 4881.449219 501.5 L 4881.449219 501.488281 C 4882.429688 500.03125 4883.550781 498.679688 4884.789062 497.429688 C 4886.019531 496.171875 4887.390625 495.070312 4888.859375 494.089844 C 4890.320312 493.109375 4891.859375 492.28125 4893.488281 491.601562 C 4895.128906 490.941406 4896.800781 490.410156 4898.53125 490.070312 C 4900.261719 489.738281 4902 489.558594 4903.78125 489.558594 L 6407.339844 489.558594 C 6409.109375 489.558594 6410.851562 489.738281 6412.589844 490.070312 C 6414.320312 490.410156 6415.988281 490.941406 6417.621094 491.601562 C 6419.25 492.28125 6420.789062 493.109375 6422.25 494.089844 C 6423.730469 495.070312 6425.089844 496.179688 6426.339844 497.429688 L 6426.351562 497.441406 C 6427.570312 498.679688 6428.710938 500.03125 6429.671875 501.5 C 6430.648438 502.949219 6431.488281 504.519531 6432.148438 506.140625 C 6432.828125 507.761719 6433.339844 509.460938 6433.691406 511.179688 C 6434.019531 512.910156 6434.199219 514.660156 6434.199219 516.421875 L 6434.199219 1295.523438 M 6434.199219 1295.523438 L 6434.199219 516.421875 C 6434.199219 514.660156 6434.019531 512.910156 6433.691406 511.179688 C 6433.339844 509.460938 6432.828125 507.761719 6432.148438 506.140625 C 6431.488281 504.519531 6430.648438 502.949219 6429.671875 501.5 C 6428.710938 500.03125 6427.570312 498.679688 6426.351562 497.441406 L 6426.339844 497.429688 C 6425.089844 496.179688 6423.730469 495.070312 6422.25 494.089844 C 6420.789062 493.109375 6419.25 492.28125 6417.621094 491.601562 C 6415.988281 490.941406 6414.320312 490.410156 6412.589844 490.070312 C 6410.851562 489.738281 6409.109375 489.558594 6407.339844 489.558594 L 4903.78125 489.558594 C 4902 489.558594 4900.261719 489.738281 4898.53125 490.070312 C 4896.800781 490.410156 4895.128906 490.941406 4893.488281 491.601562 C 4891.859375 492.28125 4890.320312 493.109375 4888.859375 494.089844 C 4887.390625 495.070312 4886.019531 496.171875 4884.789062 497.429688 C 4883.550781 498.679688 4882.429688 500.03125 4881.449219 501.488281 L 4881.449219 501.5 C 4880.46875 502.960938 4879.648438 504.511719 4878.960938 506.140625 C 4878.289062 507.769531 4877.789062 509.460938 4877.449219 511.179688 C 4877.089844 512.910156 4876.921875 514.660156 4876.921875 516.421875 L 4876.921875 1295.523438 Z M 6434.199219 1295.523438 "/>
<path fill-rule="nonzero" fill="rgb(99.609375%, 99.609375%, 99.609375%)" fill-opacity="1" d="M 5682.421875 1429.847656 C 5682.421875 1431.613281 5682.238281 1433.359375 5681.898438 1435.089844 C 5681.550781 1436.824219 5681.039062 1438.503906 5680.359375 1440.128906 C 5679.691406 1441.761719 5678.871094 1443.3125 5677.890625 1444.777344 C 5676.910156 1446.242188 5675.789062 1447.609375 5674.550781 1448.851562 C 5673.300781 1450.089844 5671.949219 1451.214844 5670.480469 1452.195312 C 5669 1453.167969 5667.460938 1454.003906 5665.839844 1454.671875 C 5664.210938 1455.347656 5662.519531 1455.859375 5660.800781 1456.203125 C 5659.070312 1456.546875 5657.320312 1456.71875 5655.558594 1456.71875 C 5653.789062 1456.71875 5652.039062 1456.546875 5650.320312 1456.203125 C 5648.589844 1455.859375 5646.910156 1455.347656 5645.289062 1454.671875 C 5643.660156 1454.003906 5642.121094 1453.167969 5640.648438 1452.195312 C 5639.191406 1451.214844 5637.820312 1450.089844 5636.578125 1448.851562 C 5635.328125 1447.609375 5634.21875 1446.242188 5633.230469 1444.777344 C 5632.25 1443.3125 5631.429688 1441.761719 5630.761719 1440.128906 C 5630.078125 1438.503906 5629.570312 1436.824219 5629.230469 1435.089844 C 5628.878906 1433.359375 5628.71875 1431.613281 5628.71875 1429.847656 C 5628.71875 1428.085938 5628.878906 1426.339844 5629.230469 1424.609375 C 5629.570312 1422.886719 5630.089844 1421.203125 5630.761719 1419.570312 C 5631.429688 1417.945312 5632.25 1416.390625 5633.230469 1414.925781 C 5634.21875 1413.453125 5635.328125 1412.097656 5636.578125 1410.855469 C 5637.820312 1409.605469 5639.191406 1408.496094 5640.648438 1407.511719 C 5642.121094 1406.535156 5643.660156 1405.707031 5645.289062 1405.03125 C 5646.910156 1404.351562 5648.589844 1403.847656 5650.320312 1403.503906 C 5652.039062 1403.160156 5653.789062 1402.988281 5655.558594 1402.988281 C 5657.320312 1402.988281 5659.070312 1403.160156 5660.800781 1403.503906 C 5662.519531 1403.84375 5664.210938 1404.351562 5665.839844 1405.03125 C 5667.460938 1405.707031 5669 1406.535156 5670.480469 1407.511719 C 5671.949219 1408.496094 5673.300781 1409.605469 5674.550781 1410.855469 C 5675.789062 1412.097656 5676.910156 1413.453125 5677.890625 1414.925781 C 5678.871094 1416.390625 5679.691406 1417.945312 5680.359375 1419.570312 C 5681.039062 1421.203125 5681.550781 1422.886719 5681.898438 1424.609375 C 5682.238281 1426.339844 5682.421875 1428.085938 5682.421875 1429.847656 Z M 5682.421875 1429.847656 "/>
<path fill-rule="nonzero" fill="rgb(0%, 0%, 0%)" fill-opacity="1" d="M 5682.421875 1429.847656 C 5682.421875 1431.605469 5682.238281 1433.367188 5681.898438 1435.089844 C 5681.550781 1436.820312 5681.039062 1438.503906 5680.359375 1440.128906 C 5679.691406 1441.757812 5678.871094 1443.3125 5677.890625 1444.777344 C 5676.898438 1446.246094 5675.789062 1447.605469 5674.550781 1448.851562 C 5673.300781 1450.089844 5671.949219 1451.214844 5670.480469 1452.195312 C 5669 1453.164062 5667.460938 1454.003906 5665.839844 1454.671875 C 5664.210938 1455.347656 5662.519531 1455.859375 5660.800781 1456.203125 C 5659.070312 1456.546875 5657.320312 1456.71875 5655.558594 1456.71875 C 5653.789062 1456.71875 5652.039062 1456.546875 5650.320312 1456.203125 C 5648.578125 1455.859375 5646.910156 1455.347656 5645.289062 1454.671875 L 5645.28125 1454.671875 C 5643.660156 1454.003906 5642.121094 1453.167969 5640.648438 1452.195312 C 5639.179688 1451.214844 5637.820312 1450.089844 5636.578125 1448.851562 C 5635.339844 1447.609375 5634.210938 1446.242188 5633.230469 1444.777344 C 5632.261719 1443.316406 5631.429688 1441.757812 5630.761719 1440.128906 C 5630.089844 1438.503906 5629.570312 1436.824219 5629.230469 1435.089844 C 5628.878906 1433.359375 5628.71875 1431.613281 5628.71875 1429.847656 C 5628.71875 1428.089844 5628.878906 1426.335938 5629.230469 1424.609375 C 5629.570312 1422.882812 5630.078125 1421.207031 5630.761719 1419.570312 C 5631.429688 1417.941406 5632.25 1416.398438 5633.230469 1414.925781 L 5633.238281 1414.921875 C 5634.21875 1413.449219 5635.328125 1412.097656 5636.578125 1410.855469 C 5637.828125 1409.605469 5639.191406 1408.496094 5640.648438 1407.511719 C 5642.121094 1406.535156 5643.660156 1405.707031 5645.289062 1405.03125 C 5646.910156 1404.351562 5648.589844 1403.847656 5650.320312 1403.503906 C 5652.050781 1403.160156 5653.789062 1402.988281 5655.558594 1402.988281 C 5657.320312 1402.988281 5659.070312 1403.160156 5660.800781 1403.503906 C 5662.519531 1403.84375 5664.210938 1404.351562 5665.839844 1405.03125 C 5667.460938 1405.707031 5669.011719 1406.535156 5670.480469 1407.511719 C 5671.949219 1408.496094 5673.300781 1409.609375 5674.550781 1410.855469 C 5675.789062 1412.097656 5676.910156 1413.457031 5677.890625 1414.925781 C 5678.871094 1416.394531 5679.691406 1417.945312 5680.359375 1419.570312 C 5681.039062 1421.199219 5681.550781 1422.890625 5681.898438 1424.609375 C 5682.238281 1426.332031 5682.421875 1428.09375 5682.421875 1429.847656 M 5682.421875 1429.847656 C 5682.421875 1428.09375 5682.238281 1426.332031 5681.898438 1424.609375 C 5681.550781 1422.890625 5681.039062 1421.199219 5680.359375 1419.570312 C 5679.691406 1417.945312 5678.871094 1416.394531 5677.890625 1414.925781 C 5676.910156 1413.457031 5675.789062 1412.097656 5674.550781 1410.855469 C 5673.300781 1409.609375 5671.949219 1408.496094 5670.480469 1407.511719 C 5669.011719 1406.535156 5667.460938 1405.707031 5665.839844 1405.03125 C 5664.210938 1404.351562 5662.519531 1403.84375 5660.800781 1403.503906 C 5659.070312 1403.160156 5657.320312 1402.988281 5655.558594 1402.988281 C 5653.789062 1402.988281 5652.050781 1403.160156 5650.320312 1403.503906 C 5648.589844 1403.847656 5646.910156 1404.351562 5645.289062 1405.03125 C 5643.660156 1405.707031 5642.121094 1406.535156 5640.648438 1407.511719 C 5639.191406 1408.496094 5637.828125 1409.605469 5636.578125 1410.855469 C 5635.328125 1412.097656 5634.21875 1413.449219 5633.238281 1414.921875 L 5633.230469 1414.925781 C 5632.25 1416.398438 5631.429688 1417.941406 5630.761719 1419.570312 C 5630.078125 1421.207031 5629.570312 1422.882812 5629.230469 1424.609375 C 5628.878906 1426.335938 5628.71875 1428.089844 5628.71875 1429.847656 C 5628.71875 1431.613281 5628.878906 1433.359375 5629.230469 1435.089844 C 5629.570312 1436.824219 5630.089844 1438.503906 5630.761719 1440.128906 C 5631.429688 1441.757812 5632.261719 1443.316406 5633.230469 1444.777344 C 5634.210938 1446.242188 5635.339844 1447.609375 5636.578125 1448.851562 C 5637.820312 1450.089844 5639.179688 1451.214844 5640.648438 1452.195312 C 5642.121094 1453.167969 5643.660156 1454.003906 5645.28125 1454.671875 L 5645.289062 1454.671875 C 5646.910156 1455.347656 5648.578125 1455.859375 5650.320312 1456.203125 C 5652.039062 1456.546875 5653.789062 1456.71875 5655.558594 1456.71875 C 5657.320312 1456.71875 5659.070312 1456.546875 5660.800781 1456.203125 C 5662.519531 1455.859375 5664.210938 1455.347656 5665.839844 1454.671875 C 5667.460938 1454.003906 5669 1453.164062 5670.480469 1452.195312 C 5671.949219 1451.214844 5673.300781 1450.089844 5674.550781 1448.851562 C 5675.789062 1447.605469 5676.898438 1446.246094 5677.890625 1444.777344 C 5678.871094 1443.3125 5679.691406 1441.757812 5680.359375 1440.128906 C 5681.039062 1438.503906 5681.550781 1436.820312 5681.898438 1435.089844 C 5682.238281 1433.367188 5682.421875 1431.605469 5682.421875 1429.847656 Z M 5682.421875 1429.847656 "/>
</svg>