<svg width="20" height="20" viewBox="0 0 20 20" fill="none" xmlns="http://www.w3.org/2000/svg">
<path d="M2.75 4.75C2.21957 4.75 1.71086 4.53929 1.33579 4.16421C0.960714 3.78914 0.75 3.28043 0.75 2.75C0.75 2.21957 0.960714 1.71086 1.33579 1.33579C1.71086 0.960714 2.21957 0.75 2.75 0.75C3.28043 0.75 3.78914 0.960714 4.16421 1.33579C4.53929 1.71086 4.75 2.21957 4.75 2.75M2.75 4.75C3.28043 4.75 3.78914 4.53929 4.16421 4.16421C4.53929 3.78914 4.75 3.28043 4.75 2.75M2.75 4.75V14.75M4.75 2.75H14.75M14.75 2.75C14.75 3.28043 14.9607 3.78914 15.3358 4.16421C15.7109 4.53929 16.2196 4.75 16.75 4.75M14.75 2.75C14.75 2.21957 14.9607 1.71086 15.3358 1.33579C15.7109 0.960714 16.2196 0.75 16.75 0.75C17.2804 0.75 17.7891 0.960714 18.1642 1.33579C18.5393 1.71086 18.75 2.21957 18.75 2.75C18.75 3.28043 18.5393 3.78914 18.1642 4.16421C17.7891 4.53929 17.2804 4.75 16.75 4.75M16.75 4.75V14.75M4.75 16.75C4.75 17.2804 4.53929 17.7891 4.16421 18.1642C3.78914 18.5393 3.28043 18.75 2.75 18.75C2.21957 18.75 1.71086 18.5393 1.33579 18.1642C0.960714 17.7891 0.75 17.2804 0.75 16.75C0.75 16.2196 0.960714 15.7109 1.33579 15.3358C1.71086 14.9607 2.21957 14.75 2.75 14.75M4.75 16.75C4.75 16.2196 4.53929 15.7109 4.16421 15.3358C3.78914 14.9607 3.28043 14.75 2.75 14.75M4.75 16.75H14.75M14.75 16.75C14.75 17.2804 14.9607 17.7891 15.3358 18.1642C15.7109 18.5393 16.2196 18.75 16.75 18.75C17.2804 18.75 17.7891 18.5393 18.1642 18.1642C18.5393 17.7891 18.75 17.2804 18.75 16.75C18.75 16.2196 18.5393 15.7109 18.1642 15.3358C17.7891 14.9607 17.2804 14.75 16.75 14.75M14.75 16.75C14.75 16.2196 14.9607 15.7109 15.3358 15.3358C15.7109 14.9607 16.2196 14.75 16.75 14.75M7.75 7.75H11.75M9.75 11.75V7.75" stroke="black" stroke-width="1.5" stroke-linecap="round" stroke-linejoin="round"/>
</svg>
