<svg width="21" height="25" viewBox="0 0 21 25" fill="none" xmlns="http://www.w3.org/2000/svg">
<rect width="21" height="25" rx="6" fill="#676FFF"/>
<path d="M4.125 14.625L6.31092 12.4391C6.57658 12.1735 6.93685 12.0243 7.3125 12.0243C7.68815 12.0243 8.04842 12.1735 8.31408 12.4391L14.75 18.875M15.4583 6.125H5.54167C4.75926 6.125 4.125 6.75926 4.125 7.54167V17.4583C4.125 18.2407 4.75926 18.875 5.54167 18.875H15.4583C16.2407 18.875 16.875 18.2407 16.875 17.4583V7.54167C16.875 6.75926 16.2407 6.125 15.4583 6.125ZM11.2083 10.375C11.2083 11.1574 11.8426 11.7917 12.625 11.7917C13.4074 11.7917 14.0417 11.1574 14.0417 10.375C14.0417 9.5926 13.4074 8.95833 12.625 8.95833C11.8426 8.95833 11.2083 9.5926 11.2083 10.375Z" stroke="white" stroke-linecap="round" stroke-linejoin="round"/>
</svg>
