<?xml version="1.0" encoding="UTF-8"?>
<svg version="1.1" xmlns="http://www.w3.org/2000/svg" width="612" height="378">
<path d="M0 0 C201.96 0 403.92 0 612 0 C612 124.74 612 249.48 612 378 C410.04 378 208.08 378 0 378 C0 253.26 0 128.52 0 0 Z " fill="#FEFEFE" transform="translate(0,0)"/>
<path d="M0 0 C1.18051941 -0.01134979 2.36103882 -0.02269958 3.57733154 -0.03439331 C4.86374542 -0.03146271 6.1501593 -0.0285321 7.47555542 -0.0255127 C8.85072519 -0.03285589 10.22588879 -0.04144285 11.6010437 -0.05117798 C15.32815765 -0.07336948 19.05505038 -0.07632611 22.78222132 -0.07443047 C25.89384036 -0.07431073 29.00541258 -0.08287571 32.11701858 -0.09120798 C39.45498717 -0.11043115 46.79284199 -0.11332884 54.13082886 -0.10656738 C61.70470872 -0.09991734 69.27810272 -0.12283168 76.85188401 -0.15988111 C83.35476656 -0.1905393 89.85749244 -0.20194269 96.36044586 -0.1980443 C100.24450635 -0.19597384 104.1281882 -0.20150206 108.01218033 -0.22593689 C111.66168878 -0.24813978 115.31040364 -0.24638154 118.95991516 -0.22600937 C120.94052882 -0.22095447 122.92115686 -0.2406613 124.90167236 -0.26101685 C126.07655212 -0.24980804 127.25143188 -0.23859924 128.46191406 -0.22705078 C129.48506273 -0.22776329 130.5082114 -0.2284758 131.56236458 -0.2292099 C134.10397339 0.39440918 134.10397339 0.39440918 135.83202648 2.89329815 C136.25176896 3.71866479 136.67151144 4.54403143 137.10397339 5.39440918 C139.11251226 6.14737262 139.11251226 6.14737262 141.39181519 6.05383301 C142.25248093 6.0734761 143.11314667 6.0931192 143.99989319 6.11335754 C144.92498184 6.1094249 145.8500705 6.10549225 146.80319214 6.10144043 C147.75337723 6.11656174 148.70356232 6.13168304 149.68254089 6.14726257 C152.71909067 6.19026992 155.75464891 6.19899016 158.79147339 6.20690918 C160.8494427 6.23004334 162.90738825 6.2554064 164.96530151 6.28308105 C170.01161362 6.34606232 175.05730274 6.37829573 180.10397339 6.39440918 C180.43397339 4.41440918 180.76397339 2.43440918 181.10397339 0.39440918 C199.27132946 0.32433152 217.43865046 0.27142711 235.60611248 0.23897266 C244.04156194 0.22350304 252.47692743 0.20241172 260.912323 0.16809082 C268.26452163 0.13819135 275.61665945 0.11883487 282.96891719 0.1121437 C286.86198601 0.10823235 290.75488084 0.09903827 294.64789391 0.07721901 C298.31273833 0.05684513 301.97733721 0.05057715 305.64223289 0.05508614 C307.6272838 0.05386828 309.61230802 0.03773084 311.59729004 0.02114868 C312.78214493 0.02527267 313.96699982 0.02939667 315.1877594 0.03364563 C316.72945817 0.02949756 316.72945817 0.02949756 318.30230236 0.02526569 C321.86062567 0.49410442 324.54910014 1.83953594 327.10397339 4.39440918 C327.20183144 7.1129412 327.23391119 9.80607588 327.22422791 12.52503967 C327.22508392 13.3854335 327.22593994 14.24582733 327.2268219 15.1322937 C327.22848747 18.04724141 327.22293672 20.96213267 327.21749878 23.8770752 C327.2171927 25.98979408 327.2173255 28.10251306 327.21786404 30.2152319 C327.21809062 35.89417556 327.21227747 41.57309833 327.2052536 47.25203705 C327.19957604 52.57289194 327.19929143 57.89374164 327.19857788 63.21459961 C327.19332193 78.79537225 327.1793609 94.37614098 327.16647339 109.95690918 C327.14584839 144.75128418 327.12522339 179.54565918 327.10397339 215.39440918 C215.56397339 215.39440918 104.02397339 215.39440918 -10.89602661 215.39440918 C-10.99915161 180.47628418 -11.10227661 145.55815918 -11.20852661 109.58190918 C-11.27680664 93.02104126 -11.27680664 93.02104126 -11.34646606 76.12561035 C-11.36904907 62.68212891 -11.36904907 62.68212891 -11.37324524 56.39607239 C-11.37791865 51.9894105 -11.3967153 47.58304735 -11.42390442 43.1764679 C-11.45808178 37.56334275 -11.46850469 31.95065492 -11.46138799 26.33743536 C-11.46287712 24.27256694 -11.47286219 22.20768396 -11.49210227 20.14290464 C-11.51681594 17.36254609 -11.51103808 14.58390703 -11.49729919 11.80351257 C-11.51186252 10.98760304 -11.52642584 10.17169352 -11.54143047 9.33105946 C-11.51126575 7.07443523 -11.51126575 7.07443523 -10.89602661 3.39440918 C-7.52529584 0.28499699 -4.47223303 0.01628639 0 0 Z " fill="#FEFEFE" transform="translate(147.89602661132813,66.6055908203125)"/>
<path d="M0 0 C1.18314405 -0.00706559 2.36628811 -0.01413118 3.58528501 -0.02141088 C4.89148524 -0.0189958 6.19768547 -0.01658071 7.54346752 -0.01409245 C8.94009078 -0.01854278 10.33671151 -0.02385614 11.73332852 -0.02996117 C15.58011968 -0.04417634 19.42683018 -0.0458038 23.27364385 -0.04536426 C27.41895597 -0.04700938 31.56423456 -0.06007016 35.70952892 -0.07155704 C44.77764626 -0.09442984 53.84574022 -0.10233008 62.91388249 -0.10738349 C68.57393477 -0.11063782 74.23398024 -0.11715868 79.89402866 -0.12438488 C95.5590779 -0.14395366 111.22412079 -0.16035628 126.88918304 -0.16326141 C128.39354126 -0.16354277 128.39354126 -0.16354277 129.92829056 -0.16382981 C131.96150696 -0.16419606 133.99472337 -0.16455976 136.02793977 -0.16492092 C137.5419182 -0.16519514 137.5419182 -0.16519514 139.08648205 -0.16547489 C140.60230411 -0.16574572 140.60230411 -0.16574572 142.14874884 -0.16602201 C158.52750849 -0.16956452 174.90613674 -0.19659046 191.28485081 -0.23397278 C208.09278627 -0.27202837 224.90065648 -0.29141869 241.70863599 -0.29172093 C251.14889811 -0.29230611 260.58900349 -0.3008374 270.02922535 -0.32971859 C278.06701858 -0.35419575 286.1045979 -0.36154024 294.1424183 -0.34647106 C298.24450377 -0.33928709 302.34616654 -0.34022306 306.44820499 -0.36288166 C310.20315982 -0.38342459 313.95736572 -0.38091615 317.71231201 -0.36000682 C319.7149481 -0.35484215 321.71760083 -0.37432739 323.72014028 -0.39466852 C333.43410151 -0.30340991 333.43410151 -0.30340991 337.13902092 2.67348289 C340.89292478 7.05849855 340.50537616 10.59696009 340.51154613 16.15633297 C340.51648411 17.08909176 340.52142209 18.02185055 340.5265097 18.98287475 C340.5419426 22.1275148 340.55026096 25.27213434 340.55865002 28.4168005 C340.56822399 30.66337421 340.57823378 32.9099461 340.5886488 35.15651608 C340.615756 41.27189349 340.63673402 47.38727867 340.65665078 53.50268316 C340.67847455 59.88755277 340.70588085 66.2723983 340.73270702 72.6572485 C340.77699833 83.37917253 340.81782529 94.10110337 340.8560133 104.8230505 C340.89536112 115.86798219 340.93678563 126.91290285 340.9810133 137.95781612 C340.98373757 138.63832567 340.98646184 139.31883521 340.98926867 140.01996626 C341.00294803 143.43379337 341.01666833 146.84762032 341.03040898 150.26144719 C341.1443957 178.59429604 341.2509279 206.92716933 341.35332775 235.26006222 C361.64832775 235.75506222 361.64832775 235.75506222 382.35332775 236.26006222 C382.35332775 244.26006222 382.35332775 244.26006222 381.35332775 246.26006222 C379.19260548 247.04630113 376.998419 247.74207448 374.79082775 248.38506222 C373.59328869 248.73826534 372.39574963 249.09146847 371.1619215 249.45537472 C370.23508556 249.72092159 369.30824963 249.98646847 368.35332775 250.26006222 C371.65332775 251.25006222 374.95332775 252.24006222 378.35332775 253.26006222 C378.35332775 253.92006222 378.35332775 254.58006222 378.35332775 255.26006222 C236.78332775 255.59006222 95.21332775 255.92006222 -50.64667225 256.26006222 C-50.31667225 255.27006222 -49.98667225 254.28006222 -49.64667225 253.26006222 C-47.142766 252.31084347 -47.142766 252.31084347 -44.08417225 251.57256222 C-42.56630116 251.19551144 -42.56630116 251.19551144 -41.017766 250.81084347 C-39.84407459 250.53820675 -39.84407459 250.53820675 -38.64667225 250.26006222 C-39.56190662 249.99451534 -40.477141 249.72896847 -41.42010975 249.45537472 C-42.60862537 249.10217159 -43.797141 248.74896847 -45.02167225 248.38506222 C-46.20503162 248.03701534 -47.388391 247.68896847 -48.60760975 247.33037472 C-51.64667225 246.26006222 -51.64667225 246.26006222 -53.64667225 244.26006222 C-53.64667225 241.62006222 -53.64667225 238.98006222 -53.64667225 236.26006222 C-40.11667225 236.26006222 -26.58667225 236.26006222 -12.64667225 236.26006222 C-12.64080601 233.40223583 -12.63493977 230.54440945 -12.62889576 227.59998226 C-12.57373033 201.39848684 -12.50377985 175.19706133 -12.41768597 148.99564897 C-12.40641768 145.56222133 -12.39527925 142.12879328 -12.38422108 138.69536495 C-12.38201739 138.01182572 -12.37981371 137.32828649 -12.37754325 136.62403395 C-12.34216232 125.55349706 -12.31730269 114.48296025 -12.29632523 103.41238777 C-12.27456949 92.05456154 -12.24129835 80.69681973 -12.19797069 69.33905143 C-12.17399748 62.95888145 -12.15529555 56.57879285 -12.14905834 50.19857883 C-12.14302606 44.1961345 -12.1230934 38.19389851 -12.09239674 32.19153118 C-12.0835867 29.98605513 -12.07990003 27.78055188 -12.08166409 25.57505894 C-12.08331011 22.56815014 -12.06667463 19.56188156 -12.04539967 16.55506039 C-12.05024724 15.67859743 -12.05509482 14.80213448 -12.06008929 13.89911205 C-12.00515489 9.20734099 -11.72651737 6.04658559 -8.64667225 2.26006222 C-5.22765619 -0.01928182 -4.01734457 0.00764331 0 0 Z M-4.64667225 9.26006222 C-5.14648209 12.24965296 -5.30137415 14.67579027 -5.24794483 17.66916561 C-5.25222492 18.53534512 -5.25650501 19.40152462 -5.2609148 20.29395199 C-5.269217 23.21701001 -5.24153569 26.13864796 -5.2142992 29.06157589 C-5.21276817 31.18455014 -5.21343389 33.30752694 -5.21612549 35.43050003 C-5.2172567 41.12817778 -5.1882279 46.82533303 -5.15307331 52.52288723 C-5.12464876 57.86453601 -5.1232605 63.20605616 -5.11969471 68.54778194 C-5.09343309 84.18111155 -5.0236276 99.81434343 -4.95917225 115.44756222 C-4.85604725 150.36568722 -4.75292225 185.28381222 -4.64667225 221.26006222 C106.89332775 221.26006222 218.43332775 221.26006222 333.35332775 221.26006222 C333.41520275 186.50693722 333.47707775 151.75381222 333.54082775 115.94756222 C333.56813976 104.95919064 333.59545177 93.97081905 333.62359142 82.64946651 C333.63362243 72.83126877 333.63362243 72.83126877 333.63965893 63.0130682 C333.6424629 58.62732074 333.65374096 54.24168135 333.67005444 49.85596371 C333.69056081 44.26942334 333.69681445 38.68304117 333.69254458 33.09646666 C333.69343804 31.0413829 333.69942873 28.98629387 333.71097314 26.93124235 C333.72579979 24.16435911 333.72233337 21.39809797 333.7140913 18.63120174 C333.72282929 17.81918206 333.73156729 17.00716238 333.74057007 16.17053604 C333.74297759 11.99560687 333.74297759 11.99560687 332.01828003 8.299366 C328.58898887 6.1587189 325.60815281 6.13628887 321.6776228 6.1398077 C320.49551723 6.13843304 319.31341167 6.13705837 318.09548473 6.13564205 C316.14800838 6.14103497 316.14800838 6.14103497 314.16118908 6.14653683 C312.78145379 6.14681887 311.40171835 6.14666062 310.02198315 6.14609432 C306.27433332 6.14580703 302.5267154 6.15169284 298.779073 6.15866828 C294.86328972 6.16491306 290.94750574 6.16550651 287.03171825 6.16669369 C279.61570754 6.16980368 272.19971155 6.17801261 264.78370732 6.18804318 C256.34123693 6.1992146 247.89876583 6.20471736 239.45628989 6.20973861 C222.08862733 6.22019548 204.72097909 6.23778852 187.35332775 6.26006222 C187.02332775 8.24006222 186.69332775 10.22006222 186.35332775 12.26006222 C180.28374027 12.2406827 174.21561095 12.18909069 168.14654064 12.10747433 C166.08151728 12.08426087 164.01637496 12.06989079 161.95122814 12.06450558 C158.9842439 12.05524043 156.01913931 12.01430402 153.0525465 11.96709347 C152.12745785 11.97102612 151.20236919 11.97495876 150.24924755 11.97901058 C149.38858181 11.95936749 148.52791607 11.93972439 147.64116955 11.91948605 C146.50532673 11.90949329 146.50532673 11.90949329 145.34653759 11.89929867 C144.68877834 11.68835064 144.0310191 11.47740261 143.35332775 11.26006222 C142.93358527 10.43469558 142.51384279 9.60932894 142.08138084 8.75895119 C140.59702492 6.02198363 140.59702492 6.02198363 137.81171894 5.63644314 C136.27699594 5.6375119 136.27699594 5.6375119 134.71126842 5.63860226 C133.53638866 5.62739346 132.3615089 5.61618465 131.15102673 5.60463619 C129.86056438 5.61789944 128.57010204 5.63116268 127.24053478 5.64482784 C125.86890508 5.64132718 124.49727942 5.63566922 123.12566662 5.62801266 C119.39808597 5.6137438 115.67124117 5.63084746 111.94373083 5.65429783 C108.04363448 5.67438591 104.14356931 5.6685282 100.24343395 5.66619015 C93.69123719 5.66624375 87.13932844 5.68601839 80.58721447 5.71807003 C73.01464709 5.75493377 65.44245752 5.7637502 57.86981213 5.75677252 C50.58528268 5.75046335 43.30088268 5.76123141 36.01637936 5.78073788 C32.91680461 5.78890763 29.81729606 5.79162219 26.71771145 5.79004574 C23.06505281 5.7891657 19.41275226 5.80341469 15.7601881 5.82927227 C13.78238212 5.83983345 11.80451495 5.83576546 9.82668591 5.83125973 C8.6461665 5.84260952 7.46564709 5.85395931 6.24935436 5.86565304 C5.22545164 5.86938175 4.20154892 5.87311047 3.14661884 5.87695217 C-0.3179156 6.35212569 -2.05586035 6.87010507 -4.64667225 9.26006222 Z " fill="#C4C4C7" transform="translate(141.64667224884033,60.7399377822876)"/>
<path d="M0 0 C0.69268362 -0.00170885 1.38536725 -0.0034177 2.09904128 -0.00517833 C4.42532899 -0.0084785 6.7513297 0.00253896 9.07759094 0.01345825 C10.74303684 0.01402225 12.40848323 0.01370602 14.07392883 0.01257324 C18.60050969 0.01199829 23.12698504 0.02377558 27.65354133 0.03772116 C32.38211011 0.05020485 37.11068119 0.05139715 41.83926392 0.05377197 C50.79588552 0.05999369 59.75245844 0.07641387 68.70905858 0.09647095 C78.9048161 0.11880843 89.10057591 0.12981797 99.29635179 0.13986182 C120.27204269 0.1607795 141.24768973 0.19596891 162.2233429 0.24050903 C163.2133429 6.18050903 163.2133429 6.18050903 164.2233429 12.24050903 C160.61872994 12.32127629 157.01591727 12.38089854 153.4108429 12.42800903 C151.87460266 12.46571411 151.87460266 12.46571411 150.30732727 12.50418091 C148.83296204 12.51868286 148.83296204 12.51868286 147.32881165 12.53347778 C145.96985779 12.55704346 145.96985779 12.55704346 144.58345032 12.58108521 C142.2233429 12.24050903 142.2233429 12.24050903 140.4042511 10.90969849 C139.2233429 9.24050903 139.2233429 9.24050903 139.2233429 6.24050903 C121.03861704 6.32436406 102.85398672 6.41948077 84.66939163 6.52803612 C76.22613083 6.57817617 67.7828798 6.62461893 59.33955383 6.66238403 C51.98108644 6.69530616 44.62269462 6.73513859 37.2643106 6.78329909 C33.36744112 6.80856191 29.47062175 6.83034382 25.57369232 6.843853 C21.90636461 6.85667536 18.23920878 6.87873155 14.57197571 6.90789223 C12.58321947 6.921296 10.59440472 6.92488918 8.60560608 6.9282074 C6.83038574 6.94495262 6.83038574 6.94495262 5.01930237 6.96203613 C3.9905814 6.96756689 2.96186043 6.97309765 1.90196609 6.97879601 C-1.11727378 7.11238492 -1.11727378 7.11238492 -4.7766571 9.24050903 C-5.1066571 79.20050903 -5.4366571 149.16050903 -5.7766571 221.24050903 C106.0933429 221.24050903 217.9633429 221.24050903 333.2233429 221.24050903 C333.10450109 152.92248062 333.10450109 152.92248062 332.95307922 84.60452271 C332.93952942 71.41494751 332.93952942 71.41494751 332.93701172 65.24754333 C332.93420781 60.92429521 332.92293002 56.60115672 332.90661621 52.27793884 C332.88610914 46.77093337 332.87985632 41.26408837 332.88412607 35.75704825 C332.88323264 33.73127077 332.87724235 31.70548795 332.8656975 29.67974317 C332.85086976 26.9522085 332.85433765 24.22530482 332.86257935 21.49775696 C332.84947236 20.29723175 332.84947236 20.29723175 332.83610058 19.0724535 C332.88005142 13.69507763 332.88005142 13.69507763 334.74589062 11.22443104 C335.23344987 10.89973678 335.72100912 10.57504251 336.2233429 10.24050903 C336.8833429 10.57050903 337.5433429 10.90050903 338.2233429 11.24050903 C338.2233429 85.49050903 338.2233429 159.74050903 338.2233429 236.24050903 C222.3933429 236.24050903 106.5633429 236.24050903 -12.7766571 236.24050903 C-12.8385321 198.55863403 -12.9004071 160.87675903 -12.9641571 122.05300903 C-12.99146912 110.1431189 -13.01878113 98.23322876 -13.04692078 85.96243286 C-13.06047058 71.44888306 -13.06047058 71.44888306 -13.06298828 64.66023254 C-13.06578974 59.90624311 -13.07705798 55.1523536 -13.09338379 50.39839172 C-13.11391577 44.33963949 -13.12013898 38.28103318 -13.11587393 32.22224939 C-13.11676617 29.99542309 -13.12274176 27.76859184 -13.1343025 25.54179537 C-13.14916866 22.53951315 -13.14564784 19.53780184 -13.13742065 16.5355072 C-13.14615865 15.65929561 -13.15489664 14.78308401 -13.16389942 13.88032055 C-13.12917257 9.18288598 -12.86412789 6.03099821 -9.7766571 2.24050903 C-6.11053419 -0.20357291 -4.37114398 -0.00648057 0 0 Z " fill="#202227" transform="translate(142.7766571044922,60.759490966796875)"/>
<path d="M0 0 C0.99 0.33 1.98 0.66 3 1 C3 75.25 3 149.5 3 226 C-39.9 226 -82.8 226 -127 226 C-129.25 215.875 -129.25 215.875 -129 212 C-130.0561381 212.00607553 -131.11227619 212.01215105 -132.20041847 212.01841068 C-157.88902124 212.16595061 -183.57765145 212.30756852 -209.26632118 212.4429636 C-221.68912069 212.50857674 -234.11190413 212.57611976 -246.53466797 212.64819336 C-257.36132007 212.71100186 -268.18798483 212.77020228 -279.01468027 212.82505554 C-284.74822568 212.85423084 -290.48174838 212.8852227 -296.21525955 212.92053413 C-301.61104213 212.9537086 -307.00682849 212.98206117 -312.40265656 213.00670624 C-314.38359166 213.01660571 -316.36451885 213.02827101 -318.34543228 213.04183006 C-321.04959464 213.06007594 -323.75371371 213.07197301 -326.45791626 213.08229065 C-327.63400371 213.09249633 -327.63400371 213.09249633 -328.8338505 213.10290819 C-332.99969459 213.11143001 -336.91401852 212.81990173 -341 212 C-341 211.67 -341 211.34 -341 211 C-229.13 211 -117.26 211 -2 211 C-2.07922784 142.68199117 -2.07922784 142.68199117 -2.18017578 74.36401367 C-2.18920898 61.17443848 -2.18920898 61.17443848 -2.19088745 55.0070343 C-2.19275671 50.68381208 -2.20027527 46.36063859 -2.21115112 42.03742981 C-2.22482244 36.53044764 -2.22899103 31.02353679 -2.22614455 25.51653922 C-2.22674017 23.4907668 -2.23073365 21.46499202 -2.23843026 19.43923414 C-2.24831501 16.71181387 -2.24600325 13.98467406 -2.24050903 11.25724792 C-2.24633436 10.45689778 -2.25215969 9.65654764 -2.25816154 8.83194447 C-2.23736657 5.01555433 -2.16956822 3.25435233 0 0 Z " fill="#2E3034" transform="translate(478,71)"/>
<path d="M0 0 C1.09092453 -0.00274933 2.18184906 -0.00549866 3.30583191 -0.0083313 C5.09362816 0.00245453 5.09362816 0.00245453 6.9175415 0.01345825 C8.80573357 0.01302017 8.80573357 0.01302017 10.73207092 0.01257324 C14.18012839 0.01199956 17.62804662 0.02375627 21.07607174 0.03772116 C24.68087495 0.050226 28.28568137 0.05139882 31.89050293 0.05377197 C38.71505739 0.05998747 45.53954775 0.07639922 52.36407399 0.09647095 C60.13426382 0.11882779 67.90445671 0.12982284 75.6746707 0.13986182 C91.65703194 0.16076539 107.63932924 0.19594271 123.62164307 0.24050903 C123.62164307 0.90050903 123.62164307 1.56050903 123.62164307 2.24050903 C124.61164307 2.24050903 125.60164307 2.24050903 126.62164307 2.24050903 C126.62164307 1.58050903 126.62164307 0.92050903 126.62164307 0.24050903 C150.05164307 0.24050903 173.48164307 0.24050903 197.62164307 0.24050903 C197.62164307 1.56050903 197.62164307 2.88050903 197.62164307 4.24050903 C199.56239168 3.9643337 199.56239168 3.9643337 201.62164307 3.24050903 C202.28164307 2.25050903 202.94164307 1.26050903 203.62164307 0.24050903 C205.97608376 -0.12863445 205.97608376 -0.12863445 208.98727417 -0.12025452 C210.1259343 -0.12437851 211.26459442 -0.1285025 212.4377594 -0.13275146 C214.32049812 -0.11657272 214.32049812 -0.11657272 216.24127197 -0.10006714 C218.21680809 -0.10072426 218.21680809 -0.10072426 220.23225403 -0.10139465 C223.84991077 -0.10225752 227.4672708 -0.08458499 231.08485842 -0.06367278 C234.8631672 -0.0449543 238.64148233 -0.04315937 242.41983032 -0.03959656 C249.57739651 -0.03026184 256.7348257 -0.00562888 263.89233148 0.02445191 C272.03972468 0.05795166 280.18712432 0.07447077 288.33456922 0.08953822 C305.09700745 0.12091952 321.85930779 0.17370759 338.62164307 0.24050903 C339.24664307 2.05300903 339.24664307 2.05300903 339.62164307 4.24050903 C338.96164307 5.23050903 338.30164307 6.22050903 337.62164307 7.24050903 C335.32139671 7.61310452 335.32139671 7.61310452 332.37798882 7.60965252 C330.69998579 7.61861224 330.69998579 7.61861224 328.98808372 7.62775296 C327.74880595 7.61901444 326.50952818 7.61027591 325.23269653 7.60127258 C323.92425093 7.60383586 322.61580532 7.60639913 321.26770985 7.60904008 C317.62362624 7.61577421 313.97980524 7.60371253 310.33575511 7.5887059 C306.41073642 7.57579171 302.48573342 7.58013171 298.56069946 7.58241272 C291.75625961 7.58398839 284.95190584 7.5745486 278.14748764 7.5576992 C268.30936591 7.53335343 258.47128595 7.52550847 248.63313736 7.52173523 C232.67273934 7.51516378 216.71238724 7.49518386 200.75201416 7.46682739 C185.24485504 7.43930473 169.73770838 7.41806239 154.23052979 7.40530396 C153.27521665 7.40451578 152.31990351 7.40372761 151.33564149 7.40291556 C146.54328003 7.39900054 141.75091849 7.3952094 136.95855689 7.39147985 C97.17955346 7.36036237 57.40060129 7.30750775 17.62164307 7.24050903 C17.62164307 6.58050903 17.62164307 5.92050903 17.62164307 5.24050903 C9.04164307 4.58050903 0.46164307 3.92050903 -8.37835693 3.24050903 C-8.70835693 4.23050903 -9.03835693 5.22050903 -9.37835693 6.24050903 C-9.37835693 4.92050903 -9.37835693 3.60050903 -9.37835693 2.24050903 C-6.13682359 0.32158482 -3.74486279 -0.00728573 0 0 Z " fill="#DFE0E2" transform="translate(142.37835693359375,297.7594909667969)"/>
<path d="M0 0 C0.68224882 -0.00205263 1.36449764 -0.00410527 2.06742066 -0.0062201 C4.38233656 -0.01193106 6.69719372 -0.01042784 9.01211548 -0.00901413 C10.67710915 -0.01159545 12.3421022 -0.01460795 14.00709438 -0.01801753 C18.60509999 -0.02611866 23.20309002 -0.02787883 27.80110192 -0.028615 C32.75154559 -0.03046025 37.70198108 -0.03800504 42.65242004 -0.04475021 C53.48939527 -0.05835769 64.3263668 -0.06436244 75.16334915 -0.06876087 C81.9273003 -0.07152009 88.69125002 -0.07575693 95.4552002 -0.08026505 C114.1732016 -0.0924625 132.89120186 -0.1027598 151.60920715 -0.10614014 C152.80829053 -0.1063597 154.00737391 -0.10657927 155.24279314 -0.10680549 C156.44479984 -0.10702377 157.64680655 -0.10724204 158.88523769 -0.10746694 C161.32108498 -0.10791041 163.75693226 -0.10835697 166.19277954 -0.10880661 C167.40105223 -0.10902804 168.60932492 -0.10924947 169.85421193 -0.10947761 C189.42549433 -0.11342421 208.99673946 -0.13087191 228.56800747 -0.15416613 C248.64953444 -0.17787511 268.73104272 -0.19034184 288.81258392 -0.19150805 C300.09231086 -0.19242525 311.37198929 -0.19818834 322.65170288 -0.21632767 C332.25909413 -0.23172276 341.8664219 -0.23685273 351.47382313 -0.22858956 C356.37613794 -0.22468053 361.2783249 -0.22562495 366.18062401 -0.23964691 C370.67025587 -0.252371 375.15966361 -0.25120137 379.64929509 -0.2390562 C381.27189317 -0.23709658 382.89450705 -0.24018989 384.51708293 -0.24890056 C393.59136067 -0.29452309 401.30685734 -0.00367201 409.57705688 4.13142776 C409.57705688 4.79142776 409.57705688 5.45142776 409.57705688 6.13142776 C268.00705688 6.46142776 126.43705688 6.79142776 -19.42294312 7.13142776 C-19.09294312 6.14142776 -18.76294312 5.15142776 -18.42294312 4.13142776 C-15.95419312 3.21736526 -15.95419312 3.21736526 -12.92294312 2.50642776 C-2.47653189 0.00251992 -2.47653189 0.00251992 0 0 Z " fill="#D9D9D9" transform="translate(110.42294311523438,309.8685722351074)"/>
<path d="M0 0 C0.69268362 -0.00170885 1.38536725 -0.0034177 2.09904128 -0.00517833 C4.42532899 -0.0084785 6.7513297 0.00253896 9.07759094 0.01345825 C10.74303684 0.01402225 12.40848323 0.01370602 14.07392883 0.01257324 C18.60050969 0.01199829 23.12698504 0.02377558 27.65354133 0.03772116 C32.38211011 0.05020485 37.11068119 0.05139715 41.83926392 0.05377197 C50.79588552 0.05999369 59.75245844 0.07641387 68.70905858 0.09647095 C78.9048161 0.11880843 89.10057591 0.12981797 99.29635179 0.13986182 C120.27204269 0.1607795 141.24768973 0.19596891 162.2233429 0.24050903 C163.2133429 6.18050903 163.2133429 6.18050903 164.2233429 12.24050903 C160.61872994 12.32127629 157.01591727 12.38089854 153.4108429 12.42800903 C151.87460266 12.46571411 151.87460266 12.46571411 150.30732727 12.50418091 C148.83296204 12.51868286 148.83296204 12.51868286 147.32881165 12.53347778 C145.96985779 12.55704346 145.96985779 12.55704346 144.58345032 12.58108521 C142.2233429 12.24050903 142.2233429 12.24050903 140.4042511 10.90969849 C139.2233429 9.24050903 139.2233429 9.24050903 139.2233429 6.24050903 C121.09042964 6.32444851 102.95761134 6.41959647 84.82482815 6.52803612 C76.40519459 6.57812767 67.98557059 6.62457097 59.56587219 6.66238403 C52.2260542 6.69535663 44.88631121 6.7352169 37.54657608 6.78329909 C33.6613483 6.80851176 29.77616993 6.8303084 25.89088249 6.843853 C22.2309333 6.85672096 18.57115403 6.87882599 14.91129875 6.90789223 C12.93385473 6.92122793 10.95635276 6.92488033 8.97886658 6.9282074 C0.39565799 6.95835812 0.39565799 6.95835812 -7.7766571 9.24050903 C-10.400909 13.17688687 -10.06537469 16.53635559 -10.05513 21.10517883 C-10.06092241 22.02245784 -10.06671481 22.93973684 -10.07268274 23.88481218 C-10.08974373 26.97110504 -10.09256449 30.05724892 -10.09550476 33.14358521 C-10.10479873 35.35089996 -10.11496659 37.55821118 -10.12594604 39.76551819 C-10.15332003 45.76927379 -10.16841735 51.77300584 -10.18137407 57.77680755 C-10.1969723 64.04690625 -10.22377301 70.31695661 -10.24940491 76.58702087 C-10.29092418 87.11464976 -10.32550189 97.64228385 -10.3547821 108.16995239 C-10.38496135 119.01404721 -10.41930872 129.8581156 -10.45927429 140.70217896 C-10.46173584 141.37047779 -10.46419739 142.03877663 -10.46673353 142.72732695 C-10.47910801 146.07994727 -10.49156457 149.43256727 -10.50406194 152.78518713 C-10.60746909 180.60359186 -10.69670087 208.42202772 -10.7766571 236.24050903 C-11.4366571 236.24050903 -12.0966571 236.24050903 -12.7766571 236.24050903 C-12.84508171 207.15239013 -12.89817932 178.06427907 -12.92985309 148.97609578 C-12.93360525 145.54266765 -12.93748822 142.10923967 -12.94145203 138.67581177 C-12.94223896 137.99227254 -12.94302589 137.30873331 -12.94383667 136.60448077 C-12.95689377 125.53390724 -12.98054928 114.4633804 -13.00811549 103.39283458 C-13.03616124 92.03505653 -13.05260701 80.67731311 -13.05892259 69.31949824 C-13.06283891 62.9392941 -13.0720649 56.55919589 -13.09384727 50.17902565 C-13.11417429 44.17663688 -13.12049853 38.17439792 -13.11598015 32.171978 C-13.11680704 29.96647897 -13.12279508 27.76097506 -13.13427353 25.55550575 C-13.1491582 22.54865423 -13.14562522 19.54237137 -13.13742065 16.5355072 C-13.14615918 15.65904425 -13.1548977 14.7825813 -13.16390103 13.87955886 C-13.12916249 9.18242176 -12.86392461 6.03074865 -9.7766571 2.24050903 C-6.11053419 -0.20357291 -4.37114398 -0.00648057 0 0 Z " fill="#272A2E" transform="translate(142.7766571044922,60.759490966796875)"/>
<path d="M0 0 C22.0615581 -0.1167936 44.12306524 -0.20496878 66.18486977 -0.25906086 C76.42852741 -0.28484418 86.67199298 -0.31999723 96.91552734 -0.37719727 C105.84364175 -0.42702822 114.77161705 -0.45929009 123.69986665 -0.47044247 C128.42752385 -0.47696175 133.1547831 -0.49228654 137.88231277 -0.52865028 C142.33272615 -0.56260491 146.78257791 -0.57305408 151.23310852 -0.56553841 C152.86575244 -0.5669132 154.49841526 -0.57684918 156.13094711 -0.59602737 C158.36285702 -0.62095919 160.59265527 -0.61490735 162.82461548 -0.60127258 C164.07272318 -0.60588155 165.32083088 -0.61049051 166.60676003 -0.61523914 C171.12387529 0.20377341 172.76163232 1.79460769 176 5 C177.68987593 8.37975186 177.13248621 12.21706786 177.12025452 15.93423462 C177.12153615 17.33949813 177.12153615 17.33949813 177.12284368 18.7731508 C177.12449885 21.93163133 177.11897649 25.09005947 177.11352539 28.24853516 C177.1132435 30.50495909 177.11340129 32.76138312 177.1139679 35.01780701 C177.1142558 41.16006265 177.10836019 47.30229891 177.10139394 53.44455004 C177.09515925 59.85743138 177.09455651 66.27031312 177.09336853 72.68319702 C177.09060964 83.45221355 177.08435571 94.22122157 177.07543945 104.99023438 C177.06626413 116.08365849 177.05918388 127.17708067 177.05493164 138.27050781 C177.05466892 138.95400435 177.05440619 139.63750089 177.05413551 140.34170945 C177.0528305 143.77052049 177.05156678 147.19933154 177.05032361 150.6281426 C177.03995245 179.08543331 177.02226119 207.54271627 177 236 C176.67 236 176.34 236 176 236 C176 161.75 176 87.5 176 11 C174.68 11.66 173.36 12.32 172 13 C171.505 115.96 171.505 115.96 171 221 C170.67 221 170.34 221 170 221 C169.99945523 219.91532786 169.99891047 218.83065573 169.99834919 217.71311474 C169.98396891 191.34948454 169.94101525 164.98601973 169.86790943 138.62248516 C169.83322134 125.87338526 169.8078989 113.12439391 169.80444336 100.37524414 C169.80140878 89.26614651 169.78098653 78.15724201 169.73947543 67.04821903 C169.71809782 61.16324409 169.70556928 55.27854405 169.71384621 49.39352989 C169.72135616 43.85880885 169.70568822 38.3246462 169.67193985 32.79002762 C169.66366961 30.75464461 169.66399977 28.71920645 169.67340279 26.68382835 C169.6849431 23.91226533 169.66603264 21.14255746 169.63923645 18.37113953 C169.64990971 17.55888796 169.66058297 16.74663639 169.67157966 15.90977114 C169.68312131 13.41365362 169.68312131 13.41365362 169 10 C165.62156384 6.8891892 162.56280273 6.62135786 158.08378601 6.60127258 C156.30650368 6.58246536 156.30650368 6.58246536 154.49331665 6.5632782 C152.55662613 6.56543083 152.55662613 6.56543083 150.58081055 6.56762695 C149.20077132 6.55860612 147.82074011 6.54827811 146.4407196 6.53674316 C142.7014443 6.50918446 138.96232107 6.49989024 135.22295737 6.49388909 C131.31246152 6.48450245 127.40207914 6.45829883 123.49165344 6.43388367 C116.08990531 6.39022293 108.6881792 6.36167338 101.28634149 6.33856028 C92.8582674 6.31150631 84.43030748 6.26759493 76.00231493 6.22227156 C58.66826874 6.1294314 41.33419789 6.05774781 24 6 C23.67 7.98 23.34 9.96 23 12 C16.07 12 9.14 12 2 12 C0 4 0 4 0 0 Z " fill="#6E7377" transform="translate(305,61)"/>
<path d="M0 0 C0.70635952 -0.00115384 1.41271903 -0.00230769 2.14048338 -0.0034965 C4.53131285 -0.00616461 6.92207633 -0.0016394 9.31290245 0.00279331 C11.03467047 0.00235765 12.75643843 0.00148284 14.47820604 0.00020415 C19.22815202 -0.0020418 23.97807563 0.00198183 28.72801876 0.00698221 C33.84323249 0.0112851 38.95844487 0.0098404 44.0736599 0.00907993 C52.94231657 0.00855459 61.81096591 0.01170242 70.67962074 0.01731777 C83.50233964 0.02543144 96.32505498 0.02804786 109.14777617 0.02930576 C129.94983973 0.03149649 150.75189937 0.03815714 171.5539608 0.04760838 C191.76587466 0.05678195 211.97778746 0.06386305 232.18970299 0.06811619 C233.4347547 0.06837891 234.67980641 0.06864164 235.96258695 0.06891232 C242.20840339 0.07021732 248.45421984 0.07148104 254.70003629 0.07272422 C306.5471805 0.08309749 358.39432046 0.10071637 410.2414608 0.12304783 C402.49118845 6.63351678 389.68521642 4.26484742 380.05905724 4.25003147 C378.42270693 4.251185 376.78635688 4.25277409 375.15000737 4.25475872 C370.67301547 4.25892001 366.19604499 4.25687584 361.71905303 4.2537725 C356.88330998 4.25150561 352.04757056 4.25500441 347.21182823 4.25775242 C337.74688462 4.26219508 328.28194894 4.26124038 318.81700502 4.25833978 C311.12470997 4.25608012 303.43241713 4.25577567 295.74012184 4.25686359 C294.64474347 4.25701683 293.5493651 4.25717006 292.42079345 4.25732794 C290.19548264 4.25764767 287.97017183 4.25797188 285.74486102 4.25830053 C264.88718031 4.26115085 244.02950399 4.25787517 223.17182399 4.25250016 C205.27625151 4.24803128 187.38068551 4.24880962 169.48511314 4.25341892 C148.69824623 4.25877043 127.91138316 4.26087751 107.12451565 4.25780666 C104.90806651 4.25748811 102.69161737 4.25717374 100.47516823 4.25686359 C99.38465614 4.25670932 98.29414404 4.25655504 97.17058613 4.25639609 C89.48680118 4.25553276 81.80301866 4.25698984 74.11923409 4.25934315 C64.75652045 4.26214767 55.3938152 4.26138901 46.03110252 4.2560624 C41.25445873 4.25343443 36.47782892 4.25240509 31.70118523 4.25571156 C27.32798969 4.25869298 22.95482108 4.25705087 18.58162798 4.251734 C17.00036863 4.25061773 15.41910701 4.25118349 13.83784913 4.25360979 C-2.02763197 4.27608508 -2.02763197 4.27608508 -7.7585392 3.12304783 C-8.0885392 2.46304783 -8.4185392 1.80304783 -8.7585392 1.12304783 C-5.83359746 -0.33942304 -3.26799752 -0.0009802 0 0 Z " fill="#5D5E60" transform="translate(107.7585391998291,306.8769521713257)"/>
<path d="M0 0 C3.3 0 6.6 0 10 0 C10 0.66 10 1.32 10 2 C10.66 2.33 11.32 2.66 12 3 C12 4.32 12 5.64 12 7 C147.96 7 283.92 7 424 7 C421 10 421 10 417.94717628 10.37259549 C416.67853065 10.37145633 415.40988503 10.37031717 414.1027956 10.36914349 C413.39359387 10.37260502 412.68439213 10.37606655 411.95369944 10.37963298 C409.55903753 10.38762211 407.1649715 10.3740755 404.77033997 10.36076355 C403.0435828 10.36207086 401.31682621 10.3646959 399.59007281 10.36853105 C394.83091739 10.37526263 390.07196319 10.36320674 385.31283343 10.34819686 C380.18604881 10.33527916 375.05927616 10.33962293 369.93247986 10.34190369 C361.04526377 10.34347913 352.15811359 10.33404166 343.27091408 10.31719017 C330.42141871 10.29284138 317.57195531 10.28499913 304.72243937 10.2812262 C283.87654631 10.27465523 263.03068841 10.25467659 242.18481445 10.22631836 C221.93123552 10.19879447 201.67766612 10.17755272 181.42407227 10.16479492 C180.17629628 10.16400675 178.9285203 10.16321858 177.64293293 10.16240653 C171.38340311 10.1584915 165.12387322 10.15470036 158.86434329 10.15097082 C106.90953789 10.11985483 54.95477066 10.0670015 3 10 C2.67 10.66 2.34 11.32 2 12 C-0.9375 11.1875 -0.9375 11.1875 -4 10 C-4.33 9.01 -4.66 8.02 -5 7 C-3.35 7 -1.7 7 0 7 C0 4.69 0 2.38 0 0 Z " fill="#9A9B9D" transform="translate(98,298)"/>
<path d="M0 0 C0.99 0.33 1.98 0.66 3 1 C3 59.41 3 117.82 3 178 C1.35 177.67 -0.3 177.34 -2 177 C-2.04667812 154.36503947 -2.08196827 131.73008686 -2.10362434 109.09508801 C-2.11394597 98.58575521 -2.12802321 88.07645229 -2.15087891 77.56713867 C-2.17078568 68.40942548 -2.18370998 59.25173391 -2.18817699 50.09399968 C-2.19078898 45.24306615 -2.19694662 40.39219449 -2.21146011 35.54128075 C-2.2250012 30.97855544 -2.2292297 26.4159177 -2.22621536 21.85317421 C-2.22676709 20.17575734 -2.23076517 18.49833764 -2.23841095 16.82093811 C-2.24831795 14.53600882 -2.24598457 12.25141297 -2.24050903 9.96647644 C-2.24235262 8.68610599 -2.24419621 7.40573553 -2.24609566 6.08656597 C-2 3 -2 3 0 0 Z " fill="#42464A" transform="translate(478,71)"/>
<path d="M0 0 C0.6837468 -0.00205263 1.3674936 -0.00410527 2.07196 -0.0062201 C4.39192243 -0.01193102 6.71182626 -0.01042786 9.03179455 -0.00901413 C10.70035168 -0.01159543 12.3689082 -0.01460793 14.03746384 -0.01801753 C18.64512252 -0.02611848 23.25276564 -0.02787882 27.8604306 -0.028615 C32.82100367 -0.0304602 37.78156857 -0.03800483 42.74213696 -0.04475021 C53.59943697 -0.05835612 64.4567333 -0.06436179 75.31404042 -0.06876087 C82.08800317 -0.07151955 88.86196447 -0.07575621 95.63592625 -0.08026505 C114.37538374 -0.09246078 133.11484008 -0.10275941 151.85430145 -0.10614014 C153.65481323 -0.10646949 153.65481323 -0.10646949 155.49169899 -0.10680549 C156.69498299 -0.10702377 157.89826699 -0.10724204 159.13801414 -0.10746694 C161.57649982 -0.10791041 164.0149855 -0.10835697 166.45347118 -0.10880661 C167.66305542 -0.10902804 168.87263966 -0.10924947 170.11887797 -0.10947761 C189.72587077 -0.11342702 209.33282644 -0.13088406 228.93980489 -0.15416613 C249.04955803 -0.1778533 269.15929251 -0.19034079 289.26905984 -0.19150805 C300.56818931 -0.19242631 311.86727042 -0.19821643 323.1663866 -0.21632767 C332.78673002 -0.23169317 342.40701012 -0.2368702 352.02736346 -0.22858956 C356.93918497 -0.22467039 361.85087884 -0.2256741 366.76268482 -0.23964691 C371.25513927 -0.25231032 375.7473692 -0.25125542 380.23982301 -0.2390562 C381.86906154 -0.23708599 383.49831558 -0.24023809 385.12753228 -0.24890056 C387.33485034 -0.259898 389.54136261 -0.2525739 391.74865723 -0.24050903 C393.5910066 -0.24140467 393.5910066 -0.24140467 395.47057515 -0.24231839 C398.56309032 0.13142776 398.56309032 0.13142776 402.56309032 3.13142776 C265.94309032 3.13142776 129.32309032 3.13142776 -11.43690968 3.13142776 C-10.11690968 2.47142776 -8.79690968 1.81142776 -7.43690968 1.13142776 C-5.57766231 -0.7278196 -2.48206371 0.00251997 0 0 Z " fill="#9B9C9D" transform="translate(110.43690967559814,309.8685722351074)"/>
<path d="M0 0 C3.64191612 0.20810949 4.93232268 0.93673414 7.63820171 3.46623421 C10.85657863 7.53151877 10.6849024 11.39919971 10.60127258 16.41525269 C10.60554471 17.35551273 10.60981683 18.29577276 10.61421841 19.26452553 C10.62244568 22.41104923 10.59496698 25.55623611 10.56762695 28.70263672 C10.56621643 30.95965036 10.56700854 33.21666629 10.56983948 35.47367859 C10.57127485 41.59936185 10.54186465 47.72455621 10.50696969 53.85012579 C10.47572687 60.25228241 10.47277707 66.65445006 10.46684265 73.05667114 C10.4530646 83.80188058 10.42182744 94.54687617 10.37719727 105.29199219 C10.33128187 116.35806381 10.29589971 127.42408669 10.2746582 138.49023438 C10.27334459 139.17268002 10.27203097 139.85512567 10.27067754 140.55825149 C10.26415222 143.98197969 10.25783371 147.40570824 10.25161803 150.82943702 C10.19980875 179.21974815 10.11139188 207.60986445 10 236 C9.67 236 9.34 236 9 236 C9 161.75 9 87.5 9 11 C7.02 11.99 7.02 11.99 5 13 C4.67 81.64 4.34 150.28 4 221 C3.67 221 3.34 221 3 221 C2.99945523 219.91532786 2.99891047 218.83065573 2.99834919 217.71311474 C2.98396891 191.34948454 2.94101525 164.98601973 2.86790943 138.62248516 C2.83322134 125.87338526 2.8078989 113.12439391 2.80444336 100.37524414 C2.80140878 89.26614651 2.78098653 78.15724201 2.73947543 67.04821903 C2.71809782 61.16324409 2.70556928 55.27854405 2.71384621 49.39352989 C2.72135616 43.85880885 2.70568822 38.3246462 2.67193985 32.79002762 C2.66366961 30.75464461 2.66399977 28.71920645 2.67340279 26.68382835 C2.6849431 23.91226533 2.66603264 21.14255746 2.63923645 18.37113953 C2.64990971 17.55888796 2.66058297 16.74663639 2.67157966 15.90977114 C2.68312131 13.41365362 2.68312131 13.41365362 2 10 C-1.11670017 7.38945482 -4.00909169 6.57012976 -8 6 C-7.67 5.01 -7.34 4.02 -7 3 C-7 3.66 -7 4.32 -7 5 C-4.36 4.34 -1.72 3.68 1 3 C0.67 2.01 0.34 1.02 0 0 Z " fill="#65676A" transform="translate(472,61)"/>
<path d="M0 0 C-1.06892473 1.47790462 -1.06892473 1.47790462 -3 3 C-6.05282372 3.36618346 -6.05282372 3.36618346 -9.8972044 3.35352612 C-10.60640613 3.35529927 -11.31560787 3.35707243 -12.04630056 3.35889933 C-14.4409977 3.36117875 -16.83504449 3.34187214 -19.22966003 3.32279968 C-20.95641413 3.31997913 -22.68317081 3.31847945 -24.40992719 3.31819278 C-29.16911537 3.3135549 -33.92805631 3.29008503 -38.68716657 3.26365387 C-43.81392524 3.23844036 -48.94071328 3.23052941 -54.06752014 3.22055054 C-62.9547599 3.20086841 -71.84190701 3.17014721 -80.72908592 3.13199425 C-93.57855167 3.07684691 -106.42802487 3.03824548 -119.27756063 3.003723 C-140.1234819 2.94726569 -160.96933571 2.87736876 -181.81518555 2.79907227 C-202.06874765 2.72302905 -222.32231523 2.65328296 -242.57592773 2.59204102 C-243.82370372 2.58826585 -245.0714797 2.58449068 -246.35706707 2.58060112 C-252.61659664 2.56170178 -258.87612658 2.54292661 -265.13565671 2.52421319 C-317.09050829 2.36872884 -369.04526939 2.19145535 -421 2 C-421 1.67 -421 1.34 -421 1 C-370.25540614 0.87231203 -319.51081162 0.74488868 -268.7662162 0.61781773 C-262.76846054 0.60279836 -256.77070488 0.58777681 -250.77294922 0.57275391 C-249.5789589 0.56976329 -248.38496859 0.56677268 -247.15479675 0.56369144 C-227.84955992 0.51533198 -208.54432354 0.46679616 -189.23908731 0.41819459 C-169.41405365 0.36828836 -149.58901951 0.318573 -129.76398492 0.26903296 C-117.54167538 0.23848512 -105.31936624 0.20779034 -93.09705755 0.17690456 C-84.70335255 0.15570796 -76.30964709 0.1346976 -67.91594127 0.11383021 C-63.08117708 0.10180522 -58.24641313 0.08970149 -53.4116497 0.07737541 C-16.19338256 -0.01741381 -16.19338256 -0.01741381 0 0 Z " fill="#87878A" transform="translate(522,305)"/>
<path d="M0 0 C2.91580117 -0.37259549 2.91580117 -0.37259549 6.74292183 -0.36914349 C7.44759297 -0.37260502 8.15226411 -0.37606655 8.87828892 -0.37963298 C11.26356038 -0.38763786 13.6482366 -0.37406264 16.03347778 -0.36076355 C17.7511223 -0.36207054 19.46876624 -0.36469499 21.18640697 -0.36853105 C25.92501879 -0.37526894 30.66342887 -0.36319818 35.40201497 -0.34819686 C40.50495877 -0.33528815 45.60789042 -0.33962229 50.71084595 -0.34190369 C59.55824624 -0.3434797 68.40558037 -0.33403627 77.25296402 -0.31719017 C90.04491723 -0.29284911 102.83683832 -0.28499992 115.62881218 -0.2812262 C136.38097758 -0.27465401 157.13310768 -0.25467208 177.88525391 -0.22631836 C198.04866356 -0.19879761 218.21206364 -0.17755433 238.37548828 -0.16479492 C239.61755299 -0.16400675 240.85961771 -0.16321858 242.13932075 -0.16240653 C248.37015306 -0.15849152 254.60098544 -0.15470037 260.83181787 -0.15097082 C312.55456965 -0.11985103 364.2772831 -0.0669944 416 0 C416.33 0.66 416.66 1.32 417 2 C278.73 2.33 140.46 2.66 -2 3 C-1.34 2.01 -0.68 1.02 0 0 Z " fill="#BBBBBB" transform="translate(98,312)"/>
<path d="M0 0 C5.82071622 -0.02464638 11.64140234 -0.0428343 17.4621582 -0.05493164 C19.44393441 -0.05997267 21.42570689 -0.06680538 23.4074707 -0.07543945 C26.24952109 -0.08751515 29.09152247 -0.09323045 31.93359375 -0.09765625 C32.82525742 -0.10281754 33.71692108 -0.10797882 34.63560486 -0.11329651 C36.75740601 -0.11349177 38.8791078 -0.0621003 41 0 C41.495 0.495 41.495 0.495 42 1 C44.33297433 1.04092937 46.66705225 1.04241723 49 1 C47.02 1.99 47.02 1.99 45 3 C46.95098085 4.95098085 50.64674929 4.25415108 53.31640625 4.31640625 C54.04746078 4.33718735 54.77851532 4.35796844 55.53172302 4.37937927 C57.87521656 4.44495024 60.21882539 4.50379432 62.5625 4.5625 C64.14779855 4.60567808 65.73308529 4.64929213 67.31835938 4.69335938 C71.21212037 4.8006392 75.10599772 4.9018849 79 5 C79 5.33 79 5.66 79 6 C76.69 6 74.38 6 72 6 C72 6.66 72 7.32 72 8 C55.5 8 39 8 22 8 C22 6.68 22 5.36 22 4 C21.01 3.67 20.02 3.34 19 3 C19 2.67 19 2.34 19 2 C16.03 1.67 13.06 1.34 10 1 C10 3.31 10 5.62 10 8 C8.35 8 6.7 8 5 8 C5.33 8.99 5.66 9.98 6 11 C1.125 9.125 1.125 9.125 0 8 C-0.14115161 5.32941149 -0.04247107 2.67567762 0 0 Z " fill="#D3D4D7" transform="translate(88,297)"/>
<path d="M0 0 C0.99 0.33 1.98 0.66 3 1 C3 1.99 3 2.98 3 4 C6.63 4.33 10.26 4.66 14 5 C14 4.34 14 3.68 14 3 C21.26 3 28.52 3 36 3 C35.34 4.32 34.68 5.64 34 7 C-2.63 7 -39.26 7 -77 7 C-77.33 6.34 -77.66 5.68 -78 5 C-74.31213575 3.84167815 -70.81682817 3.86206039 -66.96826172 3.84228516 C-65.91881882 3.83466408 -65.91881882 3.83466408 -64.84817505 3.82688904 C-63.33349725 3.81621279 -61.81880395 3.80758191 -60.30410385 3.80076981 C-57.9087987 3.78895951 -55.51367211 3.76950457 -53.11843872 3.74765015 C-46.3099761 3.68608195 -39.50153578 3.6318748 -32.69287109 3.59863281 C-28.52544178 3.57773958 -24.35834483 3.54248936 -20.19110489 3.49787521 C-18.60187808 3.48368208 -17.01259255 3.47498533 -15.42330551 3.47182083 C-13.20616325 3.46693585 -10.98991175 3.4438459 -8.77294922 3.41650391 C-6.87909988 3.40437363 -6.87909988 3.40437363 -4.94699097 3.39199829 C-3.97448395 3.26263885 -3.00197693 3.13327942 -2 3 C-1.34 2.01 -0.68 1.02 0 0 Z " fill="#EBECED" transform="translate(346,298)"/>
<path d="M0 0 C23.43 0 46.86 0 71 0 C71 1.32 71 2.64 71 4 C47.24 4 23.48 4 -1 4 C-1.33 3.34 -1.66 2.68 -2 2 C-1.34 2 -0.68 2 0 2 C0 1.34 0 0.68 0 0 Z " fill="#D3D4D6" transform="translate(269,298)"/>
<path d="M0 0 C8.91 0 17.82 0 27 0 C27 8 27 8 26 10 C25.34 9.67 24.68 9.34 24 9 C21.44893971 8.84355828 18.92081337 8.74178611 16.3671875 8.68359375 C15.23943405 8.6524221 15.23943405 8.6524221 14.08889771 8.62062073 C11.68435915 8.55517295 9.27971033 8.49626262 6.875 8.4375 C5.24608229 8.39431023 3.61717578 8.35069579 1.98828125 8.30664062 C-2.00769915 8.19949649 -6.00379059 8.09821567 -10 8 C-9.67 7.34 -9.34 6.68 -9 6 C-6.67843403 5.59270772 -4.3431213 5.25561323 -2 5 C-1.34 3.35 -0.68 1.7 0 0 Z " fill="#9B9C9E" transform="translate(497,297)"/>
<path d="M0 0 C-1.78759766 4.85693359 -1.78759766 4.85693359 -3.69921875 6.14453125 C-8.33563691 7.70214914 -12.10712749 8.30580453 -17 8 C-16.814375 7.38125 -16.62875 6.7625 -16.4375 6.125 C-15.76313824 3.95839822 -15.76313824 3.95839822 -17 2 C-82.835 1.505 -82.835 1.505 -150 1 C-150 0.67 -150 0.34 -150 0 C-132.65730037 -0.15451216 -115.31455877 -0.30252347 -97.97173977 -0.4429636 C-89.91773546 -0.50833275 -81.86375864 -0.57576558 -73.80981445 -0.64819336 C-66.78349965 -0.71137445 -59.75716398 -0.77054425 -52.73077637 -0.82505554 C-49.01628529 -0.85400876 -45.30183358 -0.88486288 -41.58740044 -0.92053413 C-37.42345471 -0.96044662 -33.25948554 -0.99139613 -29.09545898 -1.02172852 C-27.88703842 -1.03467453 -26.67861786 -1.04762054 -25.43357849 -1.06095886 C-16.90731794 -1.1128559 -8.49615363 -0.66483796 0 0 Z " fill="#C8C9CC" transform="translate(497,297)"/>
<path d="M0 0 C1.65 0.33 3.3 0.66 5 1 C5.04936158 6.09031755 5.08570105 11.18049643 5.10986328 16.27099609 C5.11993376 18.00344265 5.13359089 19.73587216 5.15087891 21.46826172 C5.17508162 23.95544639 5.18647239 26.44240675 5.1953125 28.9296875 C5.20563507 29.70682098 5.21595764 30.48395447 5.22659302 31.28463745 C5.22699271 33.19125493 5.1223214 35.09731036 5 37 C2.8614515 39.1385485 1.86724686 39.42655063 -1 40 C-2.125 36.25 -2.125 36.25 -1 34 C-0.84355828 31.44893971 -0.74178611 28.92081337 -0.68359375 26.3671875 C-0.66281265 25.61535187 -0.64203156 24.86351624 -0.62062073 24.08889771 C-0.55517295 21.68435915 -0.49626262 19.27971033 -0.4375 16.875 C-0.39431023 15.24608229 -0.35069579 13.61717578 -0.30664062 11.98828125 C-0.19949649 7.99230085 -0.09821567 3.99620941 0 0 Z " fill="#272B2F" transform="translate(476,248)"/>
<path d="M0 0 C9.24 0 18.48 0 28 0 C29 6 29 6 28 8 C26.02 8 24.04 8 22 8 C22 6.68 22 5.36 22 4 C21.01 3.67 20.02 3.34 19 3 C19 2.67 19 2.34 19 2 C16.03 1.67 13.06 1.34 10 1 C10 3.31 10 5.62 10 8 C8.35 8 6.7 8 5 8 C5.33 8.99 5.66 9.98 6 11 C1.125 9.125 1.125 9.125 0 8 C0 5.36 0 2.72 0 0 Z " fill="#B3B4B6" transform="translate(88,297)"/>
<path d="M0 0 C20.46 0 40.92 0 62 0 C62 0.99 62 1.98 62 3 C40.88 3 19.76 3 -2 3 C-1.34 2.67 -0.68 2.34 0 2 C0 1.34 0 0.68 0 0 Z " fill="#D9DADC" transform="translate(274,299)"/>
<path d="M0 0 C27.39 0 54.78 0 83 0 C82.01 1.65 81.02 3.3 80 5 C78.68 5 77.36 5 76 5 C76 3.68 76 2.36 76 1 C52.57 1 29.14 1 5 1 C5 1.66 5 2.32 5 3 C4.01 3 3.02 3 2 3 C2 2.34 2 1.68 2 1 C1.34 0.67 0.68 0.34 0 0 Z " fill="#BDBEC1" transform="translate(264,297)"/>
<path d="M0 0 C4.95 0.33 9.9 0.66 15 1 C13 6 13 6 11.30078125 7.14453125 C6.66436309 8.70214914 2.89287251 9.30580453 -2 9 C-1.7525 8.1028125 -1.7525 8.1028125 -1.5 7.1875 C-0.8885876 4.88655664 -0.8885876 4.88655664 -1 2 C-0.67 1.34 -0.34 0.68 0 0 Z " fill="#D2D3D5" transform="translate(482,296)"/>
<path d="M0 0 C2.64 0 5.28 0 8 0 C8 0.99 8 1.98 8 3 C7.34 3 6.68 3 6 3 C5.34 4.65 4.68 6.3 4 8 C-0.62 8 -5.24 8 -10 8 C-9.67 7.34 -9.34 6.68 -9 6 C-6.67843403 5.59270772 -4.3431213 5.25561323 -2 5 C-1.34 3.35 -0.68 1.7 0 0 Z " fill="#C4C5C7" transform="translate(497,297)"/>
<path d="M0 0 C0.33 0 0.66 0 1 0 C1.33 2.97 1.66 5.94 2 9 C2.66 8.67 3.32 8.34 4 8 C4.05386629 10.12472576 4.09273071 12.24983652 4.125 14.375 C4.14820313 15.55835938 4.17140625 16.74171875 4.1953125 17.9609375 C4 21 4 21 2 23 C-0.125 23.625 -0.125 23.625 -2 24 C-3.125 20.25 -3.125 20.25 -2 18 C-1.78308608 16.62793479 -1.61076837 15.24860728 -1.46484375 13.8671875 C-1.37783203 13.06152344 -1.29082031 12.25585938 -1.20117188 11.42578125 C-1.11416016 10.58402344 -1.02714844 9.74226563 -0.9375 8.875 C-0.80118164 7.60076172 -0.80118164 7.60076172 -0.66210938 6.30078125 C-0.4379632 4.2008855 -0.21853552 2.10048707 0 0 Z " fill="#222429" transform="translate(477,264)"/>
<path d="M0 0 C3.3 0 6.6 0 10 0 C10.125 7.75 10.125 7.75 9 10 C6.36 9.34 3.72 8.68 1 8 C0.67 5.36 0.34 2.72 0 0 Z " fill="#CFCFD0" transform="translate(514,297)"/>
<path d="M0 0 C8.25 0 16.5 0 25 0 C25 0.99 25 1.98 25 3 C22.33326258 3.02727345 19.66681131 3.04696948 17 3.0625 C15.88431641 3.07506836 15.88431641 3.07506836 14.74609375 3.08789062 C9.73851156 3.10966272 4.95720968 2.71541549 0 2 C0 1.34 0 0.68 0 0 Z " fill="#37393E" transform="translate(352,283)"/>
<path d="M0 0 C2.31 0 4.62 0 7 0 C6.67 3.63 6.34 7.26 6 11 C1 9 1 9 0 8 C-0.14115161 5.32941149 -0.04247107 2.67567762 0 0 Z " fill="#B2B3B6" transform="translate(88,297)"/>
<path d="M0 0 C0.66 0 1.32 0 2 0 C2 0.66 2 1.32 2 2 C2.99 1.67 3.98 1.34 5 1 C5.33 1.99 5.66 2.98 6 4 C6.33 3.01 6.66 2.02 7 1 C7 1.66 7 2.32 7 3 C7.99 3.33 8.98 3.66 10 4 C7.96804269 5.08854856 6.20150212 5.95725713 3.9375 6.4375 C1.59413001 7.11783322 0.58097427 8.18187959 -1 10 C-2.25 3.375 -2.25 3.375 0 0 Z " fill="#2A2C30" transform="translate(133,63)"/>
<path d="M0 0 C11.55 0 23.1 0 35 0 C35 0.33 35 0.66 35 1 C25.1 1 15.2 1 5 1 C5 1.66 5 2.32 5 3 C3.02 3.33 1.04 3.66 -1 4 C-1.33 3.34 -1.66 2.68 -2 2 C-1.34 2 -0.68 2 0 2 C0 1.34 0 0.68 0 0 Z " fill="#CDCED0" transform="translate(269,298)"/>
<path d="M0 0 C1.47906892 -0.02689216 2.95827483 -0.04634621 4.4375 -0.0625 C5.26121094 -0.07410156 6.08492188 -0.08570313 6.93359375 -0.09765625 C9 0 9 0 10 1 C10.04092937 3.33297433 10.04241723 5.66705225 10 8 C9.01 8 8.02 8 7 8 C7 5.69 7 3.38 7 1 C5.35 1.33 3.7 1.66 2 2 C1.67 2.99 1.34 3.98 1 5 C0.34 5 -0.32 5 -1 5 C-1 5.99 -1 6.98 -1 8 C-1.99 7.67 -2.98 7.34 -4 7 C-2.68 4.69 -1.36 2.38 0 0 Z " fill="#A9AAAC" transform="translate(505,297)"/>
<path d="M0 0 C1.65 0.33 3.3 0.66 5 1 C4.01 1.495 4.01 1.495 3 2 C3 3.32 3 4.64 3 6 C3.66 6.33 4.32 6.66 5 7 C5 7.66 5 8.32 5 9 C4.01 9.33 3.02 9.66 2 10 C0.31791365 9.02616054 -1.34738161 8.02304948 -3 7 C-5.69254991 6.29329272 -5.69254991 6.29329272 -8 6 C-7.67 5.01 -7.34 4.02 -7 3 C-7 3.66 -7 4.32 -7 5 C-4.36 4.34 -1.72 3.68 1 3 C0.67 2.01 0.34 1.02 0 0 Z " fill="#64676B" transform="translate(472,61)"/>
<path d="M0 0 C1.65 0 3.3 0 5 0 C6.125 5.75 6.125 5.75 5 8 C3.35 8 1.7 8 0 8 C0.33 6.35 0.66 4.7 1 3 C0.34 2.67 -0.32 2.34 -1 2 C-0.67 1.34 -0.34 0.68 0 0 Z " fill="#BFC0C2" transform="translate(111,297)"/>
<path d="M0 0 C1.27617188 0.00483398 1.27617188 0.00483398 2.578125 0.00976562 C3.46757813 0.01814453 4.35703125 0.02652344 5.2734375 0.03515625 C6.170625 0.03966797 7.0678125 0.04417969 7.9921875 0.04882812 C10.21100398 0.06063034 12.42968768 0.0770947 14.6484375 0.09765625 C14.6484375 0.42765625 14.6484375 0.75765625 14.6484375 1.09765625 C8.0484375 1.75765625 1.4484375 2.41765625 -5.3515625 3.09765625 C-5.6815625 2.43765625 -6.0115625 1.77765625 -6.3515625 1.09765625 C-4.00303722 -0.07660639 -2.61382185 -0.01742548 0 0 Z " fill="#6F7072" transform="translate(105.3515625,306.90234375)"/>
<path d="M0 0 C1.98 0 3.96 0 6 0 C5.1875 3.4375 5.1875 3.4375 4 7 C3.01 7.33 2.02 7.66 1 8 C0.67 5.36 0.34 2.72 0 0 Z " fill="#7E8186" transform="translate(305,61)"/>
<path d="M0 0 C1.0528418 0.01353516 1.0528418 0.01353516 2.12695312 0.02734375 C3.85561525 0.05086296 5.58410145 0.08673287 7.3125 0.125 C6.29296875 1.64453125 6.29296875 1.64453125 4.3125 3.125 C1.64141426 3.18046517 -0.74042823 3.09047069 -3.375 2.8125 C-4.07689453 2.75126953 -4.77878906 2.69003906 -5.50195312 2.62695312 C-7.2317967 2.47397376 -8.95988497 2.30137398 -10.6875 2.125 C-7.00662647 -0.32891569 -4.24394412 -0.10302759 0 0 Z " fill="#909092" transform="translate(514.6875,304.875)"/>
<path d="M0 0 C1.32 0.33 2.64 0.66 4 1 C3.67 3.31 3.34 5.62 3 8 C2.01 8 1.02 8 0 8 C0 5.36 0 2.72 0 0 Z " fill="#C9CACC" transform="translate(91,297)"/>
<path d="M0 0 C0.66 0.33 1.32 0.66 2 1 C2 1.66 2 2.32 2 3 C-0.31 3.33 -2.62 3.66 -5 4 C-5 3.34 -5 2.68 -5 2 C-5.66 2 -6.32 2 -7 2 C-7 1.34 -7 0.68 -7 0 C-4.30919898 -1.34540051 -2.86443593 -0.71610898 0 0 Z " fill="#181A20" transform="translate(142,63)"/>
<path d="M0 0 C0.99 0.33 1.98 0.66 3 1 C3 3.31 3 5.62 3 8 C2.01 8 1.02 8 0 8 C0 5.36 0 2.72 0 0 Z " fill="#B0B0B2" transform="translate(512,297)"/>
<path d="M0 0 C0.99 0.33 1.98 0.66 3 1 C3 1.99 3 2.98 3 4 C3.66 4.33 4.32 4.66 5 5 C3.02 5.66 1.04 6.32 -1 7 C-0.34 5.68 0.32 4.36 1 3 C0.34 3 -0.32 3 -1 3 C-0.67 2.01 -0.34 1.02 0 0 Z " fill="#E6E6E8" transform="translate(346,298)"/>
<path d="M0 0 C1.98 0 3.96 0 6 0 C5.67 1.65 5.34 3.3 5 5 C3.02 4.01 1.04 3.02 -1 2 C-0.67 1.34 -0.34 0.68 0 0 Z " fill="#EBEEF0" transform="translate(474,59)"/>
<path d="M0 0 C1.98 0 3.96 0 6 0 C5.34 1.32 4.68 2.64 4 4 C2.68 4 1.36 4 0 4 C0 2.68 0 1.36 0 0 Z " fill="#AFAFB1" transform="translate(341,297)"/>
<path d="M0 0 C2.64 0.33 5.28 0.66 8 1 C7.67 1.99 7.34 2.98 7 4 C4.97954558 3.39816251 2.97888961 2.72693904 1 2 C0.67 1.34 0.34 0.68 0 0 Z " fill="#868689" transform="translate(93,306)"/>
<path d="M0 0 C0.66 0 1.32 0 2 0 C2 2.31 2 4.62 2 7 C0.68 6.67 -0.64 6.34 -2 6 C-1.34 4.02 -0.68 2.04 0 0 Z " fill="#ADAEB1" transform="translate(96,298)"/>
<path d="M0 0 C0.99 0.33 1.98 0.66 3 1 C2.34 1 1.68 1 1 1 C0.34 2.32 -0.32 3.64 -1 5 C-2.32 4.34 -3.64 3.68 -5 3 C-2.6875 1.4375 -2.6875 1.4375 0 0 Z " fill="#B7B8BA" transform="translate(502,297)"/>
</svg>
