<svg width="21" height="25" viewBox="0 0 21 25" fill="none" xmlns="http://www.w3.org/2000/svg">
<rect width="21" height="25" rx="6" fill="#676FFF"/>
<path d="M13.25 15.25V16.625C13.25 16.9897 13.1051 17.3394 12.8473 17.5973C12.5894 17.8551 12.2397 18 11.875 18H6.375C6.01033 18 5.66059 17.8551 5.40273 17.5973C5.14487 17.3394 5 16.9897 5 16.625V11.125C5 10.7603 5.14487 10.4106 5.40273 10.1527C5.66059 9.89487 6.01033 9.75 6.375 9.75H7.75M7.75 8.375C7.75 8.01033 7.89487 7.66059 8.15273 7.40273C8.41059 7.14487 8.76033 7 9.125 7H14.625C14.9897 7 15.3394 7.14487 15.5973 7.40273C15.8551 7.66059 16 8.01033 16 8.375V13.875C16 14.2397 15.8551 14.5894 15.5973 14.8473C15.3394 15.1051 14.9897 15.25 14.625 15.25H9.125C8.76033 15.25 8.41059 15.1051 8.15273 14.8473C7.89487 14.5894 7.75 14.2397 7.75 13.875V8.375Z" stroke="white" stroke-linecap="round" stroke-linejoin="round"/>
<path d="M11.8416 11.8711V10.3967H12.1761V11.8711H11.8416ZM11.2717 11.3011V10.9666H12.7461V11.3011H11.2717Z" fill="white"/>
</svg>
