<svg width="32" height="32" viewBox="0 0 32 32" fill="none" xmlns="http://www.w3.org/2000/svg">
<path d="M18.6667 4V9.33333C18.6667 9.68696 18.8071 10.0261 19.0572 10.2761C19.3072 10.5262 19.6464 10.6667 20 10.6667H25.3333M18.6667 4H9.33333C8.62609 4 7.94781 4.28095 7.44771 4.78105C6.94762 5.28115 6.66667 5.95942 6.66667 6.66667V25.3333C6.66667 26.0406 6.94762 26.7189 7.44771 27.219C7.94781 27.719 8.62609 28 9.33333 28H22.6667C23.3739 28 24.0522 27.719 24.5523 27.219C25.0524 26.7189 25.3333 26.0406 25.3333 25.3333V10.6667M18.6667 4L25.3333 10.6667" stroke="#4FA5F5" stroke-width="2" stroke-linecap="round" stroke-linejoin="round"/>
<path d="M13.4453 22L11.2266 14H12.4961L14.0547 20.1953H14.1289L15.75 14H17.0078L18.6289 20.1992H18.7031L20.2578 14H21.5313L19.3086 22H18.0938L16.4102 16.0078H16.3477L14.6641 22H13.4453Z" fill="#527DCE"/>
</svg>
