<svg width="32" height="32" viewBox="0 0 32 32" fill="none" xmlns="http://www.w3.org/2000/svg">
<path d="M18.6667 4V9.33333C18.6667 9.68696 18.8071 10.0261 19.0572 10.2761C19.3072 10.5262 19.6464 10.6667 20 10.6667H25.3333M18.6667 4H9.33334C8.62609 4 7.94782 4.28095 7.44772 4.78105C6.94762 5.28115 6.66667 5.95942 6.66667 6.66667V25.3333C6.66667 26.0406 6.94762 26.7189 7.44772 27.219C7.94782 27.719 8.62609 28 9.33334 28H22.6667C23.3739 28 24.0522 27.719 24.5523 27.219C25.0524 26.7189 25.3333 26.0406 25.3333 25.3333V10.6667M18.6667 4L25.3333 10.6667" stroke="#75FF77" stroke-width="2" stroke-linecap="round" stroke-linejoin="round"/>
<path d="M13.7969 12.6364L15.7979 15.9075H15.8633L17.8643 12.6364H19.3263L16.7209 16.8182L19.3427 21H17.8725L15.8633 17.7738H15.7979L13.7887 21H12.3185L14.9853 16.8182L12.3349 12.6364H13.7969Z" fill="#21E164"/>
</svg>
