<svg width="32" height="32" viewBox="0 0 32 32" fill="none" xmlns="http://www.w3.org/2000/svg">
<path d="M18.6667 4V9.33333C18.6667 9.68696 18.8071 10.0261 19.0572 10.2761C19.3072 10.5262 19.6464 10.6667 20 10.6667H25.3333M18.6667 4H9.33333C8.62609 4 7.94781 4.28095 7.44771 4.78105C6.94762 5.28115 6.66667 5.95942 6.66667 6.66667V25.3333C6.66667 26.0406 6.94762 26.7189 7.44771 27.219C7.94781 27.719 8.62609 28 9.33333 28H22.6667C23.3739 28 24.0522 27.719 24.5523 27.219C25.0524 26.7189 25.3333 26.0406 25.3333 25.3333V10.6667M18.6667 4L25.3333 10.6667Z" fill="#F69030"/>
<path d="M18.6667 4V9.33333C18.6667 9.68696 18.8071 10.0261 19.0572 10.2761C19.3072 10.5262 19.6464 10.6667 20 10.6667H25.3333M18.6667 4H9.33333C8.62609 4 7.94781 4.28095 7.44771 4.78105C6.94762 5.28115 6.66667 5.95942 6.66667 6.66667V25.3333C6.66667 26.0406 6.94762 26.7189 7.44771 27.219C7.94781 27.719 8.62609 28 9.33333 28H22.6667C23.3739 28 24.0522 27.719 24.5523 27.219C25.0524 26.7189 25.3333 26.0406 25.3333 25.3333V10.6667M18.6667 4L25.3333 10.6667" stroke="#F69030" stroke-width="2" stroke-linecap="round" stroke-linejoin="round"/>
<path d="M13.0128 21V12.6364H15.8388C16.4949 12.6364 17.0313 12.7548 17.4478 12.9917C17.8671 13.2258 18.1774 13.543 18.3789 13.9432C18.5804 14.3434 18.6811 14.7899 18.6811 15.2827C18.6811 15.7754 18.5804 16.2233 18.3789 16.6262C18.1802 17.0292 17.8725 17.3504 17.456 17.59C17.0394 17.8269 16.5058 17.9453 15.8551 17.9453H13.8295V17.0469H15.8224C16.2717 17.0469 16.6324 16.9693 16.9047 16.8141C17.1769 16.6589 17.3743 16.4493 17.4968 16.1852C17.622 15.9184 17.6847 15.6175 17.6847 15.2827C17.6847 14.9478 17.622 14.6483 17.4968 14.3842C17.3743 14.1201 17.1755 13.9132 16.9006 13.7635C16.6256 13.611 16.2608 13.5348 15.8061 13.5348H14.0256V21H13.0128Z" fill="white"/>
</svg>
