<?xml version="1.0" encoding="UTF-8"?>
<svg width="160" height="120" viewBox="0 0 160 120" xmlns="http://www.w3.org/2000/svg">
  <defs>
    <linearGradient id="paperStroke" x1="0" y1="0" x2="1" y2="1">
      <stop offset="0%" stop-color="#1d4ed8"/>
      <stop offset="100%" stop-color="#0ea5e9"/>
    </linearGradient>
    <filter id="shadow" x="-20%" y="-20%" width="140%" height="140%">
      <feDropShadow dx="0" dy="2" stdDeviation="3" flood-color="#0f172a" flood-opacity="0.25"/>
    </filter>
  </defs>
  <rect width="160" height="120" fill="none"/>
  <g filter="url(#shadow)">
    <path d="M34 18 H78 L86 32 V92 H26 V26 Z" fill="#f9fafb" stroke="url(#paperStroke)" stroke-width="3" stroke-linejoin="round"/>
    <circle cx="60" cy="45" r="4" fill="none" stroke="#1d4ed8" stroke-width="2"/>
    <path d="M50 60 L40 55" stroke="#1d4ed8" stroke-width="2" stroke-linecap="round"/>
    <path d="M60 70 L46 63" stroke="#1d4ed8" stroke-width="2" stroke-linecap="round"/>
  </g>
  <g transform="translate(70 32)" filter="url(#shadow)">
    <path d="M12 0 H70 L80 8 L108 8 C114 8 118 12 118 16 C118 20 114 24 108 24 H100 C100 28 98 32 92 36 C86 40 74 44 60 44 L60 54 H70 C76 54 80 58 80 62 V68 H10 V62 C10 58 14 54 20 54 H30 V44 C20 44 12 42 6 38 C2 36 0 32 0 28 V20 C0 8 4 0 12 0 Z" fill="#3f3f46"/>
    <text x="52" y="30" text-anchor="middle" font-family="'Segoe UI', Tahoma, sans-serif" font-weight="700" font-size="18" fill="#e2e8f0">MB</text>
  </g>
</svg>
