<svg width="21" height="26" viewBox="0 0 21 26" fill="none" xmlns="http://www.w3.org/2000/svg">
<rect width="21" height="26" rx="6" fill="#676FFF"/>
<path d="M6.58955 7.93876C6.75499 7.93722 6.92043 7.93568 7.09089 7.93409C7.27055 7.93321 7.45021 7.93232 7.63531 7.93141C7.9114 7.92995 7.9114 7.92995 8.19307 7.92847C8.58333 7.92667 8.97358 7.92549 9.36385 7.92458C9.86255 7.92325 10.3612 7.91913 10.8598 7.91436C11.3367 7.91046 11.8135 7.90993 12.2903 7.90891C12.4688 7.90681 12.6474 7.9047 12.8313 7.90254C13.9331 7.90485 14.4828 7.96576 15.2702 8.63594C15.7545 9.16625 15.8974 9.40802 15.9048 10.0768C15.9075 10.2895 15.9075 10.2895 15.9102 10.5065C15.9113 10.6605 15.9123 10.8145 15.9134 10.9731C15.9145 11.1309 15.9156 11.2887 15.9168 11.4512C15.9189 11.7857 15.9203 12.1202 15.9213 12.4547C15.9229 12.8822 15.9277 13.3096 15.9332 13.737C15.9378 14.1457 15.9384 14.5544 15.9396 14.9631C15.9421 15.1161 15.9445 15.2692 15.947 15.4268C15.9443 16.3712 15.8733 16.8424 15.0914 17.5173C14.4727 17.9324 14.1906 18.0549 13.4104 18.0612C13.1623 18.0636 13.1623 18.0636 12.9091 18.0659C12.7295 18.0668 12.5498 18.0677 12.3647 18.0686C12.0886 18.07 12.0886 18.07 11.8069 18.0715C11.4167 18.0733 11.0264 18.0745 10.6362 18.0754C10.1374 18.0767 9.63883 18.0809 9.14016 18.0856C8.66334 18.0895 8.18653 18.0901 7.70969 18.0911C7.53116 18.0932 7.35264 18.0953 7.1687 18.0975C6.06688 18.0951 5.51725 18.0342 4.72977 17.3641C4.2455 16.8338 4.10258 16.592 4.09522 15.9232C4.09342 15.7814 4.09163 15.6396 4.08977 15.4935C4.08874 15.3395 4.08771 15.1855 4.08664 15.0269C4.08551 14.8691 4.08438 14.7113 4.08322 14.5488C4.08111 14.2143 4.07974 13.8798 4.07868 13.5453C4.07713 13.1178 4.07232 12.6904 4.06675 12.263C4.0622 11.8543 4.06158 11.4456 4.06039 11.0369C4.05794 10.8839 4.05549 10.7308 4.05296 10.5732C4.05566 9.62875 4.12672 9.15764 4.90859 8.48266C5.52729 8.06757 5.80935 7.94507 6.58955 7.93876ZM5.17875 9.07C4.65818 9.85532 4.63689 10.6089 4.63789 11.4916C4.63729 11.6103 4.63669 11.7291 4.63607 11.8515C4.63527 12.1018 4.6352 12.3521 4.63581 12.6024C4.63625 12.983 4.63296 13.3634 4.62941 13.7439C4.6291 13.9881 4.629 14.2323 4.62914 14.4766C4.62785 14.5891 4.62656 14.7016 4.62523 14.8176C4.63206 15.6606 4.72265 16.4991 5.42375 17.1325C6.32205 17.5802 7.13962 17.5969 8.15266 17.5961C8.37063 17.5969 8.37063 17.5969 8.593 17.5977C8.89964 17.5983 9.20629 17.5984 9.51294 17.5979C9.97995 17.5975 10.4468 17.6003 10.9138 17.6034C11.2126 17.6036 11.5114 17.6037 11.8102 17.6036C11.9487 17.6047 12.0873 17.6058 12.2301 17.6069C13.2053 17.6014 14.0728 17.5306 14.8125 16.93C15.3493 16.1514 15.3631 15.3904 15.3621 14.5084C15.363 14.3303 15.363 14.3303 15.3639 14.1485C15.3647 13.8982 15.3648 13.6479 15.3642 13.3976C15.3638 13.017 15.367 12.6366 15.3706 12.2561C15.3709 12.0119 15.371 11.7677 15.3709 11.5234C15.3721 11.4109 15.3734 11.2984 15.3748 11.1824C15.3679 10.3394 15.2774 9.50093 14.5763 8.8675C13.6886 8.42517 12.8838 8.4031 11.8829 8.40391C11.6701 8.40314 11.6701 8.40314 11.453 8.40235C11.1535 8.40166 10.854 8.4016 10.5546 8.40212C10.0992 8.4025 9.64403 8.39968 9.18871 8.39664C8.89677 8.39637 8.60483 8.39628 8.31289 8.39641C8.1781 8.3953 8.04331 8.3942 7.90443 8.39306C6.91336 8.3988 5.93267 8.47349 5.17875 9.07Z" fill="white" fill-opacity="0.99"/>
<path d="M11.7495 10.0755C12.1912 10.2828 12.2395 10.4274 12.3887 10.8325C12.5679 11.3129 12.7106 11.5377 13.22 11.8C13.5465 11.9237 13.8765 12.0326 14.2104 12.1408C14.48 12.28 14.48 12.28 14.6052 12.513C14.62 12.76 14.62 12.76 14.34 13.12C14.0162 13.2602 14.0162 13.2602 13.64 13.3825C13.5158 13.4238 13.3917 13.4651 13.2637 13.5077C12.94 13.6 12.94 13.6 12.66 13.6C12.6329 13.6824 12.6059 13.7649 12.578 13.8498C12.5415 13.958 12.5051 14.0661 12.4675 14.1775C12.4318 14.2847 12.396 14.3919 12.3592 14.5023C12.24 14.8 12.24 14.8 11.96 15.16C11.6187 15.22 11.6187 15.22 11.26 15.16C11.0213 14.8981 10.8731 14.6405 10.7443 14.3275C10.4662 13.7254 10.1798 13.5138 9.48375 13.2475C9.23604 13.1645 8.98817 13.0819 8.74 13C8.6 12.88 8.6 12.88 8.59125 12.5725C8.59414 12.476 8.59702 12.3794 8.6 12.28C8.71478 12.2478 8.82955 12.2156 8.94781 12.1825C9.98017 11.887 9.98017 11.887 10.6475 11.2C10.7173 11.0417 10.7821 10.8817 10.84 10.72C11.1827 9.95306 11.1827 9.95306 11.7495 10.0755ZM11.54 10.96C11.5044 11.0251 11.4689 11.0902 11.4323 11.1573C11.3841 11.2432 11.3359 11.329 11.2862 11.4175C11.2156 11.5449 11.2156 11.5449 11.1435 11.6748C10.7858 12.2111 10.4056 12.3502 9.72 12.52C9.89873 12.8264 10.0293 12.831 10.3937 12.955C11.0712 13.2281 11.2882 13.6149 11.54 14.2C11.7209 13.9674 11.8938 13.7299 12.0562 13.4875C12.4496 13.0409 12.7819 12.8877 13.36 12.64C12.9477 12.3965 12.9477 12.3965 12.52 12.205C11.9648 11.8283 11.8809 11.534 11.68 10.96C11.6338 10.96 11.5876 10.96 11.54 10.96Z" fill="white"/>
<path d="M8.32493 13.4997C8.66153 13.6224 8.75256 13.7397 8.94126 14.005C9.24074 14.3952 9.52803 14.564 10 14.8C10.14 15.04 10.14 15.04 10.14 15.28C9.93627 15.519 9.77063 15.6232 9.44876 15.73C8.99284 15.9668 8.84295 16.3184 8.60001 16.72C8.27626 16.7486 8.27626 16.7486 7.90001 16.72C7.67251 16.5227 7.67251 16.5227 7.48001 16.2625C7.2113 15.9224 7.0795 15.7698 6.65751 15.5575C6.36001 15.4 6.36001 15.4 6.27251 15.1C6.36001 14.8 6.36001 14.8 6.69251 14.5825C7.06001 14.44 7.06001 14.44 7.34001 14.44C7.39631 14.2692 7.39631 14.2692 7.45376 14.095C7.63275 13.6913 7.77899 13.462 8.32493 13.4997ZM8.04001 14.44C7.8 14.6751 7.56624 14.9151 7.34001 15.16C7.78456 15.5711 7.78456 15.5711 8.32001 15.88C8.55101 15.6028 8.78201 15.3256 9.02001 15.04C8.79273 14.8349 8.55896 14.6351 8.32001 14.44C8.22761 14.44 8.13521 14.44 8.04001 14.44Z" fill="white"/>
<path d="M7.26125 9.565C7.76354 9.67001 7.88391 9.8831 8.18 10.24C8.4107 10.4422 8.64341 10.6428 8.88 10.84C8.66174 11.2992 8.31557 11.5816 7.9 11.92C7.8076 11.9992 7.7152 12.0784 7.62 12.16C7.27875 12.2125 7.27875 12.2125 6.92 12.16C6.70125 11.875 6.70125 11.875 6.5 11.56C6.40183 11.5229 6.30365 11.4858 6.2025 11.4475C6.11588 11.4054 6.02925 11.3634 5.94 11.32C5.835 10.945 5.835 10.945 5.8 10.6C5.96026 10.5295 5.96026 10.5295 6.12375 10.4575C6.52268 10.2622 6.52268 10.2622 6.71 9.9175C6.92 9.64 6.92 9.64 7.26125 9.565ZM7.2 10.48C6.97086 10.7152 6.97086 10.7152 6.78 10.96C6.97248 11.145 6.97248 11.145 7.2 11.32C7.2924 11.32 7.3848 11.32 7.48 11.32C7.48 11.2408 7.48 11.1616 7.48 11.08C7.6186 11.0404 7.7572 11.0008 7.9 10.96C7.70915 10.7152 7.70915 10.7152 7.48 10.48C7.3876 10.48 7.2952 10.48 7.2 10.48Z" fill="white"/>
</svg>
