<svg width="21" height="25" viewBox="0 0 21 25" fill="none" xmlns="http://www.w3.org/2000/svg">
<rect width="21" height="25" rx="6" fill="#676FFF"/>
<path d="M16.8845 12.5106C16.8806 10.8187 16.2056 9.19768 15.0082 8.00409C13.8107 6.81049 12.1887 6.14212 10.4991 6.14602C8.71814 6.15684 7.0103 6.85666 5.73268 8.09916L4.13663 9.70477M4.13663 9.70477L4.12846 6.16071M4.13663 9.70477L7.67588 9.6966M4.14317 12.54C4.14707 14.2319 4.822 15.853 6.01949 17.0466C7.21698 18.2402 8.83893 18.9085 10.5285 18.9046C12.3095 18.8938 14.0173 18.194 15.295 16.9515L16.891 15.3459M16.891 15.3459L13.3518 15.354M16.891 15.3459L16.8992 18.8899" stroke="white" stroke-linecap="round" stroke-linejoin="round"/>
</svg>
