<svg width="21" height="25" viewBox="0 0 21 25" fill="none" xmlns="http://www.w3.org/2000/svg">
<rect width="21" height="25" rx="6" fill="#676FFF"/>
<g clip-path="url(#clip0_21_150)">
<path d="M11.2083 18.875H16.875M16.9983 8.82517C17.3728 8.45076 17.5832 7.94291 17.5833 7.41336C17.5833 6.8838 17.373 6.3759 16.9986 6.0014C16.6242 5.62689 16.1164 5.41646 15.5868 5.4164C15.0572 5.41633 14.5493 5.62663 14.1748 6.00104L4.72142 15.4566C4.55696 15.6206 4.43534 15.8225 4.36725 16.0445L3.43155 19.1272C3.41324 19.1884 3.41186 19.2535 3.42754 19.3155C3.44323 19.3775 3.47541 19.434 3.52065 19.4792C3.5659 19.5244 3.62253 19.5565 3.68453 19.5721C3.74654 19.5876 3.81161 19.5862 3.87284 19.5678L6.95621 18.6328C7.17804 18.5653 7.37992 18.4444 7.54413 18.2807L16.9983 8.82517Z" stroke="white" stroke-linecap="round" stroke-linejoin="round"/>
</g>
<defs>
<clipPath id="clip0_21_150">
<rect width="17" height="17" fill="white" transform="translate(2 4)"/>
</clipPath>
</defs>
</svg>
