<svg width="21" height="25" viewBox="0 0 21 25" fill="none" xmlns="http://www.w3.org/2000/svg">
<rect width="21" height="25" rx="6" fill="#676FFF"/>
<path d="M9.17869 11.1787L10.5 12.5M13.2083 15.2083L12.0275 14.0275M9.17869 13.8213L13.2083 9.79167M6.70833 7.625H14.2917C14.89 7.625 15.375 8.11002 15.375 8.70833V16.2917C15.375 16.89 14.89 17.375 14.2917 17.375H6.70833C6.11002 17.375 5.625 16.89 5.625 16.2917V8.70833C5.625 8.11002 6.11002 7.625 6.70833 7.625ZM9.41667 10.6042C9.41667 11.0529 9.0529 11.4167 8.60417 11.4167C8.15544 11.4167 7.79167 11.0529 7.79167 10.6042C7.79167 10.1554 8.15544 9.79167 8.60417 9.79167C9.0529 9.79167 9.41667 10.1554 9.41667 10.6042ZM9.41667 14.3958C9.41667 14.8446 9.0529 15.2083 8.60417 15.2083C8.15544 15.2083 7.79167 14.8446 7.79167 14.3958C7.79167 13.9471 8.15544 13.5833 8.60417 13.5833C9.0529 13.5833 9.41667 13.9471 9.41667 14.3958Z" stroke="white" stroke-linecap="round" stroke-linejoin="round"/>
</svg>
