<svg width="21" height="25" viewBox="0 0 21 25" fill="none" xmlns="http://www.w3.org/2000/svg">
<rect width="21" height="25" rx="6" fill="#676FFF"/>
<g clip-path="url(#clip0_21_136)">
<path d="M10 15.6667V14.3333C10 13.9797 10.1054 13.6406 10.2929 13.3905C10.4804 13.1405 10.7348 13 11 13H15C15.2652 13 15.5196 12.8595 15.7071 12.6095C15.8946 12.3594 16 12.0203 16 11.6667V9.66667C16 9.31305 15.8946 8.97391 15.7071 8.72386C15.5196 8.47381 15.2652 8.33333 15 8.33333H14M7 6.33333H13C13.5523 6.33333 14 6.93029 14 7.66667V9C14 9.73638 13.5523 10.3333 13 10.3333H7C6.44772 10.3333 6 9.73638 6 9V7.66667C6 6.93029 6.44772 6.33333 7 6.33333ZM9.5 15.6667H10.5C10.7761 15.6667 11 15.9651 11 16.3333V19C11 19.3682 10.7761 19.6667 10.5 19.6667H9.5C9.22386 19.6667 9 19.3682 9 19V16.3333C9 15.9651 9.22386 15.6667 9.5 15.6667Z" stroke="white" stroke-linecap="round" stroke-linejoin="round"/>
</g>
<defs>
<clipPath id="clip0_21_136">
<rect width="12" height="16" fill="white" transform="translate(5 5)"/>
</clipPath>
</defs>
</svg>
