<svg width="32" height="32" viewBox="0 0 32 32" fill="none" xmlns="http://www.w3.org/2000/svg">
<path d="M18.6667 4V9.33333C18.6667 9.68696 18.8071 10.0261 19.0572 10.2761C19.3072 10.5262 19.6464 10.6667 20 10.6667H25.3333" fill="#4FA5F5"/>
<path d="M22.6667 28H9.33333C8.62609 28 7.94781 27.719 7.44771 27.219C6.94762 26.7189 6.66666 26.0406 6.66666 25.3333V6.66667C6.66666 5.95942 6.94762 5.28115 7.44771 4.78105C7.94781 4.28095 8.62609 4 9.33333 4H18.6667L25.3333 10.6667V25.3333C25.3333 26.0406 25.0524 26.7189 24.5523 27.219C24.0522 27.719 23.3739 28 22.6667 28Z" fill="#4FA5F5"/>
<path d="M18.6667 4V9.33333C18.6667 9.68696 18.8071 10.0261 19.0572 10.2761C19.3072 10.5262 19.6464 10.6667 20 10.6667H25.3333M18.6667 4H9.33333C8.62609 4 7.94781 4.28095 7.44771 4.78105C6.94762 5.28115 6.66666 5.95942 6.66666 6.66667V25.3333C6.66666 26.0406 6.94762 26.7189 7.44771 27.219C7.94781 27.719 8.62609 28 9.33333 28H22.6667C23.3739 28 24.0522 27.719 24.5523 27.219C25.0524 26.7189 25.3333 26.0406 25.3333 25.3333V10.6667M18.6667 4L25.3333 10.6667" stroke="#4FA5F5" stroke-width="2" stroke-linecap="round" stroke-linejoin="round"/>
<path d="M13.2479 22L11.1953 14.7273H12.6122L13.9226 20.0717H13.9901L15.3892 14.7273H16.6783L18.081 20.0753H18.1449L19.4553 14.7273H20.8722L18.8196 22H17.5199L16.0639 16.897H16.0071L14.5476 22H13.2479Z" fill="white"/>
</svg>
