<svg width="21" height="25" viewBox="0 0 21 25" fill="none" xmlns="http://www.w3.org/2000/svg">
<rect width="21" height="25" rx="6" fill="#676FFF"/>
<path d="M3 10.75L4.66667 9V16M8 9H10.5C10.721 9 10.933 9.09219 11.0893 9.25628C11.2455 9.42038 11.3333 9.64294 11.3333 9.875V11.625C11.3333 11.8571 11.2455 12.0796 11.0893 12.2437C10.933 12.4078 10.721 12.5 10.5 12.5H8.83333C8.61232 12.5 8.40036 12.5922 8.24408 12.7563C8.0878 12.9204 8 13.1429 8 13.375V15.125C8 15.3571 8.0878 15.5796 8.24408 15.7437C8.40036 15.9078 8.61232 16 8.83333 16H11.3333M14.6667 9H16.75C17.0815 9 17.3995 9.13828 17.6339 9.38442C17.8683 9.63056 18 9.9644 18 10.3125V11.1875C18 11.5356 17.8683 11.8694 17.6339 12.1156C17.3995 12.3617 17.0815 12.5 16.75 12.5M16.75 12.5H15.5M16.75 12.5C17.0815 12.5 17.3995 12.6383 17.6339 12.8844C17.8683 13.1306 18 13.4644 18 13.8125V14.6875C18 15.0356 17.8683 15.3694 17.6339 15.6156C17.3995 15.8617 17.0815 16 16.75 16H14.6667" stroke="white" stroke-width="2" stroke-linecap="round" stroke-linejoin="round"/>
</svg>
